<?xml version="1.0" encoding="UTF-8" standalone="no"?>
<!-- Created with Inkscape (http://www.inkscape.org/) -->

<svg
   version="1.1"
   id="svg18"
   width="363.55176"
   height="624.69067"
   viewBox="0 0 363.55176 624.69068"
   sodipodi:docname="monkey-jonny-doomsday.ai"
   xmlns:inkscape="http://www.inkscape.org/namespaces/inkscape"
   xmlns:sodipodi="http://sodipodi.sourceforge.net/DTD/sodipodi-0.dtd"
   xmlns="http://www.w3.org/2000/svg"
   xmlns:svg="http://www.w3.org/2000/svg">
  <defs
     id="defs22">
    <clipPath
       clipPathUnits="userSpaceOnUse"
       id="clipPath34">
      <path
         d="M 0,500 H 500 V 0 H 0 Z"
         id="path32" />
    </clipPath>
  </defs>
  <sodipodi:namedview
     id="namedview20"
     pagecolor="#505050"
     bordercolor="#eeeeee"
     borderopacity="1"
     inkscape:showpageshadow="0"
     inkscape:pageopacity="0"
     inkscape:pagecheckerboard="0"
     inkscape:deskcolor="#505050"
     showgrid="false" />
  <g
     id="g26"
     inkscape:groupmode="layer"
     inkscape:label="Page 1"
     transform="matrix(1.3333333,0,0,-1.3333333,-150.58957,649.10665)">
    <g
       id="g28">
      <g
         id="g30"
         clip-path="url(#clipPath34)">
        <path
           d="m 338.098,354.535 c -0.326,0.246 -0.049,0.632 0.304,0.666 0.836,0.081 -0.207,-0.527 -0.304,-0.666 m -30.176,11.03 c -0.098,-0.139 -1.138,-0.748 -0.307,-0.669 0.358,0.037 0.632,0.423 0.307,0.669 m -14.918,2.034 0.358,0.179 c -0.149,0.104 -0.764,1.154 -0.758,0.221 0.003,-0.086 0.319,-0.323 0.4,-0.4 m 29.011,-86.635 v 1.271 c 0.657,0.062 0.335,-0.866 0.346,-1.271 z m 8.345,104.92 0.4,0.397 -0.4,0.395 -0.399,-0.395 z M 286.416,256.283 c 0.244,-0.191 0.305,-0.713 0.563,-0.797 -0.017,0.392 0.377,1.482 -0.342,1.203 -0.144,-0.054 -0.578,-0.121 -0.221,-0.406 m 0.23,147.344 c 0.058,-0.151 0.476,-0.523 0.567,-0.622 0.135,0.606 -0.111,1.412 -0.567,1.583 0,-0.211 -0.06,-0.794 0,-0.961 m 29.44,-51.433 c -0.262,0.044 -0.56,0.341 -0.415,0.703 h 1.212 c -0.1,-0.357 -0.46,-0.761 -0.797,-0.703 M 201.377,225.298 c -0.093,-0.102 -0.524,-0.487 -0.55,-0.612 -0.072,-0.324 -0.116,-0.912 0.107,-0.986 0.371,0.507 0.571,1.057 0.443,1.598 m 135.95,127.99 c 0.158,0.16 0.314,0.457 0.587,0.42 v -1.196 c -0.361,-0.149 -0.592,0.165 -0.784,0.413 0.025,0.049 0.135,0.3 0.197,0.363 m -6.967,-4.766 h 0.363 c -0.039,0.583 0.26,1.96 -0.363,2.102 z M 203.43,229.747 c -0.16,-0.185 -0.592,-0.561 -0.616,-0.691 -0.071,-0.321 -0.116,-0.909 0.135,-0.994 0.16,0.178 0.59,0.559 0.618,0.684 0.07,0.323 0.114,0.915 -0.137,1.001 m 78.611,165.279 c 0.177,-0.213 0.428,-0.218 0.611,-0.17 0.272,0.063 0.244,0.372 0.165,0.597 -0.063,0.184 -0.341,0.304 -0.492,0.279 -0.316,-0.051 -0.551,-0.383 -0.284,-0.706 m 14.103,-35.118 c 0.16,0.237 0.827,0.112 1.233,0.121 v -1.224 c -0.46,0.207 -0.813,0.695 -1.233,1.103 m -3.741,2.141 c 0.198,0.337 0.668,0.144 0.973,0.163 -0.46,-0.362 -0.753,-0.897 -1.124,-1.312 -0.074,-0.077 -0.65,0.121 -0.283,0.357 0.15,0.1 0.337,0.637 0.434,0.792 m 33.39,-116.058 c -0.047,-0.077 -0.16,-0.316 -0.199,-0.399 0.078,-0.077 0.322,-0.381 0.38,-0.377 0.397,0.023 0.773,0.399 0.795,0.795 0.002,0.059 -0.302,0.303 -0.374,0.376 -0.219,-0.108 -0.467,-0.182 -0.602,-0.395 m -36.548,112.057 c -0.175,-0.22 -0.261,-0.497 -0.202,-0.78 h 1.182 v 1.184 c -0.383,0.116 -0.755,-0.125 -0.98,-0.404 m 34.957,-87.359 c 0.233,0.276 0.945,0.253 1.108,-0.009 0.144,-0.23 0.137,-0.56 -0.095,-0.592 -0.349,-0.045 -0.822,-0.202 -0.989,0.111 -0.049,0.105 -0.088,0.409 -0.024,0.49 m 14.504,72.272 h 1.591 v 0.792 h -1.591 z M 229.419,234.521 v 1.138 c 0.511,0.084 1.087,-0.273 1.21,-0.836 0.137,-0.612 -0.806,-0.29 -1.21,-0.302 m 106.322,109.22 c -0.167,-0.22 -0.261,-0.499 -0.204,-0.78 h 1.569 c 0.058,0.281 -0.03,0.56 -0.202,0.78 -0.246,0.321 -0.917,0.321 -1.163,0 M 298.57,265.864 h 1.985 v -0.796 H 298.57 Z M 229.008,28.794 c 0.602,0.13 1.278,-0.396 1.238,-0.981 -0.297,0 -1.112,-0.071 -1.356,0 -0.156,0.044 -0.532,0.474 -0.664,0.595 0.158,0.076 0.629,0.353 0.782,0.386 m 54.258,334.857 c -0.068,-0.153 -0.036,-0.677 0.041,-0.852 0.144,-0.318 0.63,-0.165 0.97,-0.102 0.202,0.035 0.27,0.318 0.374,0.536 -0.072,0.077 -0.31,0.314 -0.394,0.386 -0.272,0.225 -0.834,0.374 -0.991,0.032 m 32.988,42.498 c -0.035,-0.06 -0.017,-0.33 0.018,-0.39 0.058,-0.095 0.339,-0.364 0.444,-0.404 0.118,-0.042 0.55,-0.033 0.603,0 0.307,0.169 0.706,0.404 0.488,0.806 -0.044,0.076 -0.321,0.35 -0.427,0.387 -0.118,0.037 -0.546,0.037 -0.664,0 -0.105,-0.037 -0.404,-0.297 -0.462,-0.399 M 205.583,234.659 c -0.082,-0.089 -0.347,-0.355 -0.386,-0.465 -0.039,-0.118 0.021,-0.536 -0.021,-0.652 -0.037,-0.111 -0.318,-0.372 -0.397,-0.472 0.16,0 0.708,-0.088 0.831,0 0.39,0.312 0.599,0.915 0.637,1.366 0.025,0.286 -0.37,0.559 -0.664,0.223 m 130.342,103.532 c 0.183,0 0.759,-0.046 0.868,0 0.476,0.203 0.824,0.695 0.723,1.196 h -1.591 z M 199.018,221.351 c -0.017,-0.156 -0.049,-0.651 0,-0.79 0.028,-0.102 0.318,-0.323 0.397,-0.404 0.121,0.267 0.525,1.049 0.594,1.328 0.049,0.198 0,0.848 0,1.059 h -0.791 c -0.045,-0.239 -0.179,-0.952 -0.2,-1.193 m 145.466,122 c 0.075,0.088 0.341,0.367 0.448,0.402 0.121,0.046 0.537,0.014 0.597,-0.012 0.471,-0.22 0.831,-0.682 0.729,-1.179 h -1.974 c -0.06,0.283 0.021,0.573 0.2,0.789 M 313.804,241.62 c -0.279,-0.057 -1.062,-0.475 -1.326,-0.597 l 0.448,-0.443 c 0.601,0.233 1.368,0.346 2.336,0.216 v 0.824 c -0.295,0 -1.18,0.064 -1.458,0 M 198.196,219.704 c -0.093,-0.211 -0.502,-0.989 -0.571,-1.267 -0.049,-0.198 0,-0.846 0,-1.043 0.362,-0.149 0.555,0.197 0.766,0.419 0.502,0.54 0.606,1.583 -0.195,1.891 m 137.341,185.043 c -0.089,-0.08 -0.381,-0.347 -0.407,-0.455 -0.056,-0.251 0,-1.055 0,-1.327 h 1.191 v 1.981 c -0.278,0.054 -0.571,-0.023 -0.784,-0.199 m -48.491,-134.91 v 2.371 c 0.359,0.146 0.597,-0.158 0.764,-0.404 0.485,-0.708 0.192,-1.616 -0.414,-1.967 -0.028,-0.014 -0.274,0 -0.35,0 m 32.21,-26.886 c -0.606,-0.23 -1.217,-0.467 -1.618,-0.929 l 0.426,-0.424 c 0.433,0.255 0.983,0.587 1.638,0.475 0.258,-0.046 0.71,0.353 0.509,0.739 -0.182,0.346 -0.679,0.246 -0.955,0.139 m 42.495,-12.855 c -0.272,0.954 -1.131,1.393 -1.897,1.976 -0.178,-0.151 -0.119,-0.887 -0.004,-1.305 0.072,-0.251 0.278,-0.585 0.585,-0.671 0.244,-0.073 1.056,0 1.316,0 M 238.085,30.865 c 0.314,-0.308 0.995,-1.08 1.275,-1.257 0.347,-0.212 0.753,-0.571 1.136,-0.378 0.33,0.169 0.56,0.581 0.439,0.957 z m 91.349,365.345 c -0.253,-0.13 -0.926,-0.801 -1.061,-1.056 -0.077,-0.144 0,-0.741 0,-0.962 0.632,0.346 1.389,0.637 1.776,1.238 0.149,0.235 0.258,0.499 0.203,0.78 -0.177,0 -0.774,0.082 -0.918,0 m 11.06,-362.038 c -0.053,-0.137 -0.027,-0.662 0.03,-0.734 0.249,-0.299 0.511,-0.922 0.929,-0.609 0.389,0.286 0.73,0.825 0.611,1.308 -0.03,0.121 -0.335,0.39 -0.441,0.429 -0.118,0.042 -0.546,0.042 -0.664,0 -0.106,-0.039 -0.425,-0.295 -0.465,-0.394 m 5.374,317.929 c 0.206,0 0.852,-0.056 1.098,0 0.399,0.093 0.795,0.479 1.28,0.411 v -1.191 c -0.604,-0.13 -1.254,-0.207 -1.978,-0.154 -0.277,0.019 -0.516,0.553 -0.4,0.934 m -34.586,48.354 c 0.026,-0.107 0.311,-0.399 0.411,-0.439 0.137,-0.049 0.648,-0.081 0.785,-0.028 0.102,0.042 0.362,0.356 0.397,0.467 0.042,0.116 0.076,0.583 0,0.685 -0.354,0.49 -1.008,0.799 -1.593,1.029 0,-0.339 -0.058,-1.382 0,-1.714 m -97.549,-171.16 -1.005,-2.179 c -0.047,-0.104 0,-0.478 0,-0.587 0.288,-0.058 0.576,0.011 0.873,0.299 0.311,0.3 0.541,0.876 0.715,1.431 0.081,0.251 0,1.152 0,1.456 -0.272,0.039 -0.487,-0.228 -0.583,-0.42 M 314.51,350.364 c 0.494,0.154 0.88,-0.531 1.147,-0.954 0.102,-0.16 0,-1.022 0,-1.287 -0.183,0 -0.778,-0.067 -0.915,0 -0.276,0.144 -0.583,0.365 -0.674,0.669 -0.06,0.193 -0.027,0.853 0.026,1.052 0.028,0.105 0.262,0.476 0.416,0.52 m -12.077,38.204 c 1.126,0.286 2.347,-0.067 2.83,-0.717 0.148,-0.205 -0.309,-0.6 -0.627,-0.781 -0.081,-0.039 -0.567,-0.062 -0.636,0 z m 45.216,-46.8 c 0.039,0.099 0.358,0.374 0.464,0.394 0.253,0.058 1.059,0 1.31,0 0.128,-0.601 0.258,-1.249 0.207,-1.98 -0.084,0.076 -0.351,0.366 -0.458,0.394 -0.199,0.054 -0.859,-0.053 -1.059,0 -0.106,0.026 -0.399,0.309 -0.436,0.407 -0.054,0.139 -0.083,0.645 -0.028,0.785 m 7.366,-107.639 c 0.262,-0.877 0.829,-1.649 2.108,-1.354 0.216,0.051 0.077,0.581 -0.012,0.902 -0.041,0.172 -0.598,0.719 -0.731,0.74 -0.494,0.079 -1.527,0.261 -1.365,-0.288 m 1.971,114.638 c -0.104,0.241 0,1.082 0,1.346 0.189,0 0.797,0.082 0.922,0 0.418,-0.264 0.88,-0.608 1.066,-1.038 0.107,-0.239 0,-1.082 0,-1.346 -0.183,0 -0.791,-0.08 -0.917,0 -0.418,0.269 -0.878,0.61 -1.071,1.038 m -68.294,17.044 c -0.513,-0.184 -1.054,-0.372 -1.252,-0.878 -0.053,-0.148 0,-0.726 0,-0.91 0.344,0 1.396,-0.081 1.723,0 0.307,0.077 0.477,0.418 0.637,0.69 0.051,0.09 0.067,0.52 0.027,0.631 -0.039,0.114 -0.299,0.427 -0.399,0.467 -0.139,0.053 -0.646,0.037 -0.736,0 M 115.762,38.939 c 0.149,0.093 0.632,0.318 0.822,0.415 0.527,-0.541 0.778,-1.311 1.154,-2.024 0.342,-0.645 -0.632,-0.298 -1.029,-0.337 -0.209,0.367 -0.847,0.843 -1.333,0.339 l -0.399,0.402 c 0.207,0.439 0.353,0.936 0.785,1.205 m 200.283,364.022 0.009,2.394 h -2.046 c 0.1,-0.562 0.342,-1.124 0.504,-1.705 0.058,-0.204 0.555,-0.78 0.736,-0.863 0.265,-0.135 0.566,0.034 0.797,0.174 m -28.017,-1.138 c 0.132,-0.165 0.135,-0.808 0.24,-0.954 0.094,-0.131 0.701,-0.598 0.846,-0.53 0.453,0.207 1.111,0.353 1.891,0.214 0.06,0.318 0.035,0.687 -0.325,0.943 -0.583,0.418 -1.576,0.645 -2.459,0.97 -0.184,0.075 -0.439,-0.33 -0.193,-0.643 m 56.44,-67.906 c -0.081,-0.105 -0.01,-0.418 0.007,-0.458 0.262,-0.79 0.856,-1.319 1.446,-1.812 0.063,-0.053 0.598,-0.066 0.731,-0.013 0.103,0.034 0.363,0.357 0.4,0.462 0.045,0.121 0.065,0.569 0,0.685 -0.23,0.423 -0.698,0.69 -1.033,1.01 -0.627,-0.202 -1.147,0.608 -1.551,0.126 m -29.352,-76.165 c -1.217,-0.427 -2.199,-0.956 -2.747,-1.825 0.373,0 1.207,-0.095 1.435,0 0.251,0.102 0.856,1.059 1.117,1.045 0.731,-0.023 1.512,-0.304 2.44,-0.188 0.279,0.03 0.644,0.388 0.739,0.771 -1.224,-0.158 -2.242,0.063 -2.984,0.197 m 0.776,4.889 c -0.265,-0.045 -0.511,-0.353 -0.63,-0.632 -0.095,-0.216 0,-1.048 0,-1.331 1.328,0.014 2.202,0.672 2.78,1.547 0.053,0.077 0,0.666 0,0.887 -0.758,-0.009 -1.429,-0.346 -2.15,-0.471 m 17.65,80.113 c -0.162,-0.076 -0.689,-0.341 -0.745,-0.476 -0.101,-0.25 -0.121,-1.165 -0.052,-1.437 0.082,-0.302 0.418,-0.476 0.691,-0.636 0.089,-0.049 0.517,-0.067 0.633,-0.023 0.302,0.104 0.666,0.429 0.666,0.671 v 2.099 c -0.415,0.053 -0.822,-0.019 -1.193,-0.198 m -67.161,33.035 c 0.167,-0.429 0.648,-0.77 1.066,-1.036 0.125,-0.081 0.732,0 0.917,0 v 2.116 c 0,0.288 -0.392,0.544 -0.674,0.669 -0.213,0.088 -1.044,0 -1.309,0 0,-0.35 -0.13,-1.431 0,-1.749 m 22.838,30.351 c -0.169,-0.428 0.142,-1.001 0.511,-1.212 0.636,-0.367 1.43,-0.771 2.248,-1.087 0.283,-0.11 1.268,-0.339 1.063,0.148 -0.262,0.618 -0.971,0.635 -1.246,1.02 -0.396,0.546 -0.864,1.098 -1.48,1.53 -0.069,0.044 -0.506,0.046 -0.622,0.009 -0.107,-0.037 -0.429,-0.292 -0.474,-0.408 m -6.546,-31.189 c 0.086,-0.283 0.394,-1.194 0.667,-1.461 0.561,-0.552 1.419,-0.977 2.092,-1.542 l 0.418,0.421 -0.992,1.985 c -0.146,0.293 -0.965,1.036 -1.258,1.194 -0.142,0.079 -0.742,0 -0.927,0 0,-0.116 -0.034,-0.49 0,-0.597 M 367.722,24.823 c -0.804,-0.358 -1.768,-0.802 -2.597,-1.386 0.5,0 1.445,-0.128 1.691,0 0.959,0.52 2.094,0.923 3.295,1.14 0.678,0.125 1.86,-0.01 2.501,0.144 -0.256,0.227 -0.657,0.708 -0.787,0.708 h -2.118 z m -78.798,239.97 c 0.049,0.23 0.588,0.109 0.889,0.028 0.825,-0.216 1.615,-0.467 2.2,-0.905 0.095,-0.073 0.053,-0.7 0,-0.834 -0.042,-0.105 -0.363,-0.374 -0.467,-0.4 -0.223,-0.053 -0.961,-0.028 -1.189,0.033 -0.866,0.227 -1.739,0.724 -1.433,2.078 m 65.942,71.014 c -0.251,-0.126 -0.945,-0.804 -1.056,-1.057 -0.098,-0.221 0,-1.063 0,-1.454 1.044,0.279 2.285,0.651 3.81,0.52 -0.873,0.674 -1.112,1.452 -1.64,1.956 -0.16,0.151 -0.94,0.125 -1.114,0.035 m -28.901,-54.273 c 0.139,0.134 0.546,0.081 0.592,-0.18 0.156,-0.882 -0.244,-1.608 -0.759,-2.024 -0.325,-0.269 -0.376,-0.969 -0.888,-1.147 -0.221,-0.072 -1.04,0 -1.305,0 v 1.985 c 0.186,0 0.832,-0.09 0.927,0 z M 345.673,33.771 c -0.149,-0.329 -0.625,-1.288 -0.829,-1.571 -0.193,-0.271 -1.001,-0.927 -1.168,-1.207 -0.07,-0.119 -0.056,-0.655 0,-0.799 0.037,-0.1 0.357,-0.369 0.465,-0.395 0.25,-0.058 1.058,0 1.323,0 0,0.263 -0.135,1.223 0,1.336 0.592,0.487 0.929,1.242 1.18,2.038 0.118,0.386 -0.216,0.601 -0.43,0.743 -0.14,0.096 -0.427,0.101 -0.541,-0.145 M 243.348,412.906 c -0.026,0.158 -0.021,0.632 -0.021,0.952 0.429,-0.538 0.926,-1.425 0.796,-2.277 -0.021,-0.158 0.699,-0.713 0.794,-0.922 0.145,-0.326 0.4,-1.382 0.4,-1.728 v -2.12 c 0,-0.132 -0.479,-0.527 -0.736,-0.811 z M 349.423,32.184 c -0.144,-0.035 -0.639,-0.144 -0.671,-0.169 -0.866,-0.858 -1.997,-1.325 -2.705,-2.213 -0.044,-0.691 0.49,-1.205 1.058,-1.394 0.096,-0.032 0.604,-0.054 0.744,0 0.097,0.042 0.369,0.353 0.397,0.467 0.051,0.197 -0.089,0.95 0.027,1.045 0.604,0.502 1.022,1.326 1.15,2.264 m -67.106,227.173 c -0.125,-0.004 -0.38,-0.416 -0.42,-0.52 -0.042,-0.121 -0.074,-0.558 -0.02,-0.655 0.104,-0.202 0.605,-0.731 0.796,-0.866 0.234,-0.16 1.087,-0.657 1.363,-0.613 0.652,0.107 1.731,0.26 2.32,0.515 l -1.521,1.454 c -0.89,0.116 -1.614,0.72 -2.518,0.685 m 16.051,134.473 c 0.059,0.1 0.361,0.372 0.462,0.399 0.2,0.049 0.927,0.077 1.031,-0.027 0.493,-0.483 1.06,-0.897 1.492,-1.398 0.168,-0.207 -0.049,-1.315 0,-1.623 0.025,-0.193 0.318,-0.743 0.394,-0.927 l -0.413,-0.413 c -0.762,0.475 -1.41,1.112 -1.791,2.053 -0.471,0.364 -0.938,0.875 -1.17,1.599 -0.007,0.019 -0.037,0.279 -0.005,0.337 m 51.64,-60.125 c -0.235,0.088 -0.806,-0.409 -0.968,-0.485 -0.246,-0.112 -0.239,-0.404 -0.14,-0.599 0.108,-0.212 0.706,-0.829 0.937,-0.987 0.287,-0.202 1.269,-0.636 1.6,-0.797 -0.161,-0.186 -0.469,-0.32 -0.43,-0.592 0.209,0 0.778,-0.056 0.947,0 0.305,0.098 0.511,0.411 0.607,0.699 0.183,0.555 0.413,1.124 0.51,1.677 -1.353,0.069 -2.189,0.752 -3.063,1.084 m -56.824,-69.072 c 0.071,0.211 0.389,0.834 0.484,0.834 h 4.582 c -0.355,-0.607 -0.984,-1.15 -1.635,-1.363 -0.288,-0.096 -0.942,-1.089 -1.121,-1.045 l -1.798,0.413 c -0.276,0.065 -0.664,0.743 -0.512,1.161 m -7.857,143.464 c -0.273,0.03 -0.492,-0.376 -0.629,-0.652 -0.077,-0.163 -0.089,-0.836 -0.04,-1.031 0.029,-0.105 0.3,-0.423 0.396,-0.465 0.551,-0.213 1.037,-0.849 1.5,-0.752 0.418,0.091 0.443,0.664 0.694,0.948 0.411,0.455 1.064,0.91 1.207,1.532 0.032,0.139 -0.504,0.715 -0.671,0.711 -0.733,-0.021 -1.525,-0.407 -2.457,-0.291 m 21.034,-151.789 c -0.095,0.009 -0.495,-0.495 -0.65,-0.553 -0.14,-0.058 -0.646,-0.083 -0.785,-0.025 -0.155,0.058 -0.523,0.511 -0.587,0.525 -1.196,0.241 -2.009,-0.172 -2.525,-0.762 -0.148,-0.167 0.328,-0.76 0.623,-0.76 h 3.019 l 2.12,0.41 c 0.483,0.099 1.037,0.294 1.325,0.784 -0.081,0.077 -0.264,0.448 -0.571,0.569 -0.464,0.193 -1.114,-0.299 -1.969,-0.188 m 26.947,144.214 c -0.876,-0.626 -1.445,-1.676 -2.153,-2.747 -0.049,-0.071 0,-0.9 0,-1.165 0.833,-0.024 1.574,0.29 1.981,0.806 0.647,0.819 1.154,1.857 1.599,2.977 0.047,0.12 0,0.775 0,0.991 -0.185,0 -0.789,0.074 -0.928,0 -0.142,-0.086 -0.312,-0.722 -0.499,-0.862 m 11.396,-52.582 c 0.908,-0.474 2.16,0.062 3.165,0.283 0.158,0.035 0.534,-0.394 0.574,-0.494 0.056,-0.138 0.056,-0.653 0,-0.792 -0.04,-0.1 -0.369,-0.4 -0.464,-0.4 h -2.25 c -0.184,0 -0.713,-0.726 -0.929,-0.794 -0.263,-0.083 -1.166,0 -1.433,0 -0.195,0.388 -0.771,0.934 -0.436,1.171 0.524,0.371 1.137,0.689 1.773,1.026 m -60.046,41.121 -0.396,-0.4 c -0.133,0.081 -0.53,0.4 -0.662,0.4 h -1.849 c -0.366,0 -0.882,-0.609 -1.065,-1.039 -0.112,-0.264 0,-1.189 0,-1.483 0.601,-0.342 1.258,-0.625 1.778,-1.006 l 1.572,2.229 c 0.149,0.209 0.184,0.739 0.226,0.899 z m 2.012,6.562 c -0.957,-0.444 -1.505,-1.215 -2.408,-1.707 v -2.071 c 0.264,0 1.21,-0.154 1.355,0 0.667,0.668 1.313,1.402 2.218,1.864 0,0.198 0.084,0.892 0,1.003 -0.285,0.418 -0.678,1.136 -1.165,0.911 m 23.026,-3.976 c 0.39,0.121 0.781,0.242 1.191,0.188 0,-0.26 0.176,-1.286 0,-1.416 -1.275,-0.945 -2.615,-1.883 -3.941,-2.945 -0.101,-0.085 -0.959,0 -1.223,0 v 0.924 c 1.021,0.502 1.734,1.354 2.152,2.021 0.75,0.534 1.189,1.026 1.821,1.228 m 31.2,-38.754 c 0.119,0.304 0.641,0.295 0.781,-0.005 0.076,-0.164 0.336,-0.713 0.475,-0.787 0.167,-0.086 0.86,0.053 1.062,0 0.104,-0.028 0.423,-0.297 0.462,-0.394 0.051,-0.14 0.074,-0.737 -0.028,-0.818 -0.697,-0.55 -1.326,-1.277 -1.572,-1.909 -0.864,-0.852 -1.958,-0.824 -2.573,-0.116 -0.03,0.035 -0.032,0.478 0.009,0.534 0.583,0.685 1.138,1.412 1.976,1.774 0,0.135 0.068,0.564 0,0.713 -0.146,0.314 -0.785,0.52 -0.592,1.008 m -51.069,-96.56 v -0.406 c 0.347,0 1.621,0.188 1.768,0 l 1.23,-1.591 c 0.074,-0.099 0.804,-0.157 1.011,0 0.766,0.581 2.329,1.166 3.492,0.537 0.128,0.153 0.413,0.418 0.446,0.525 0.048,0.165 0,0.741 0,1 -1.658,0.3 -2.935,-0.19 -4.765,-0.067 -0.283,0.019 -1.185,0.479 -1.394,0.388 -0.541,-0.223 -1.146,-0.3 -1.788,-0.386 m 73.52,92.787 c 0.123,0.067 0.65,0.027 0.736,-0.028 0.357,-0.205 0.543,-0.56 0.45,-0.964 -0.13,-0.574 -0.62,-1.393 -0.344,-1.649 0.563,-0.515 1.055,-1.166 1.338,-1.932 0.165,-0.457 -0.286,-0.806 -0.497,-1.228 -0.599,0.077 -1.142,0.434 -1.697,0.65 -0.084,0.03 -0.369,0.362 -0.362,0.448 0.12,1.517 -0.228,2.622 -0.432,3.767 -0.035,0.209 0.61,0.834 0.808,0.936 m -25.014,-13.116 c -0.284,-0.149 -0.982,-0.785 -1.233,-0.991 0.195,-0.533 0.647,-1.101 1.105,-1.197 l 1.825,-0.394 c 0.211,-0.044 0.713,-0.718 0.929,-0.799 0.234,-0.079 1.059,0 1.347,0 0.037,0.283 -0.272,0.413 -0.432,0.592 l 1.603,0.804 c -0.209,0.197 -0.807,0.882 -1.057,0.994 -0.202,0.086 -0.967,0.041 -1.194,0 -0.195,-0.035 -0.746,-0.319 -0.963,-0.411 -0.414,0.452 -0.688,0.998 -1.173,1.383 -0.101,0.077 -0.652,0.077 -0.757,0.019 M 219.727,222.935 c -0.028,-0.324 -0.221,-0.89 0.139,-1.006 0.216,-0.076 0.966,0.19 1.236,0.248 -0.122,-0.597 0.078,-1.114 0.23,-1.568 -0.152,-0.134 -0.418,-0.424 -0.525,-0.452 -0.251,-0.053 -1.059,0 -1.322,0 0,-0.262 -0.088,-1.09 0,-1.321 0.072,-0.207 0.599,-0.758 0.792,-0.864 0.123,-0.063 0.745,-0.091 0.822,0 0.402,0.468 0.717,1.142 0.801,1.89 0.038,0.318 1.006,1.049 1.159,1.354 0.086,0.172 0.088,0.961 0,1.031 -0.448,0.359 -1.001,0.694 -1.705,0.736 -0.374,0.023 -0.64,0.722 -1.044,0.662 -0.286,-0.044 -0.553,-0.372 -0.583,-0.71 M 354.256,30.194 c -1.196,-0.727 -2.255,-1.425 -2.989,-2.413 -0.242,-0.318 -0.602,-0.724 -0.409,-1.133 0.1,-0.211 0.66,-0.82 0.831,-0.82 h 1.888 c 0.541,0.372 0.735,1.07 1.02,1.795 0.028,0.077 -0.061,0.597 0.009,0.718 0.13,0.251 0.803,0.843 0.98,1.065 0.177,0.221 0.258,0.504 0.2,0.788 -0.335,0 -1.412,0.077 -1.53,0 m -59.86,336.99 c 0.332,-0.295 0.708,-0.709 0.861,-0.776 0.106,-0.049 0.617,0.072 0.676,0 0.475,-0.578 1.214,-0.892 2.066,-1.194 h 2.16 l 1.987,-0.587 c 0.42,-0.112 0.953,0.211 1.387,0.158 0.956,-0.121 1.844,-0.4 2.984,-0.395 v 0.824 H 304 c -0.187,0 -0.723,0.702 -0.864,0.741 -0.978,0.299 -1.918,0.613 -3.091,0.483 -0.188,-0.016 -0.762,0.764 -0.945,0.764 z m 32.243,-100.926 c -0.656,-0.824 -1.692,-1.293 -2.578,-1.952 -1.229,-0.193 -2.383,0.12 -3.284,0.448 -0.339,-0.318 -1.166,-0.992 -1.344,-1.275 -0.073,-0.116 -0.054,-0.657 0,-0.797 0.042,-0.099 0.382,-0.418 0.471,-0.404 0.936,0.112 1.721,-0.225 2.508,-0.251 1.356,0.521 2.566,1.192 4.185,1.48 l 1.379,1.855 c 0.077,0.1 0,0.713 0,0.896 -0.265,0 -1.231,0.14 -1.337,0 m 26.244,87.034 c 0.168,0.086 0.873,0.049 1.026,-0.044 0.418,-0.255 0.888,-0.566 1.092,-0.991 0.093,-0.193 0.039,-0.892 -0.04,-1.054 -0.13,-0.277 -0.322,-0.583 -0.624,-0.695 -0.118,-0.039 -0.544,0.033 -0.632,-0.026 -0.271,-0.153 -0.692,-0.345 -0.692,-0.633 v -2.912 c -0.186,0 -0.831,-0.096 -0.926,0 l -2.452,2.38 c -0.194,0.188 -0.528,1.047 -0.595,1.326 -0.051,0.202 0,0.852 0,1.077 0.487,0.07 0.878,-0.332 1.279,-0.413 0.324,-0.063 1.21,0 1.503,0 0,0.188 -0.077,0.78 0,0.929 0.132,0.251 0.806,0.931 1.061,1.056 M 196.029,215.998 c -0.081,-0.088 -0.337,-0.376 -0.369,-0.483 -0.042,-0.144 0.019,-0.641 -0.021,-0.789 -0.079,-0.275 -0.432,-1.099 -0.557,-1.239 -0.576,-0.627 -0.985,-1.427 -1.089,-2.477 l -1.533,-2.879 c -0.077,-0.147 0.112,-0.806 0,-0.897 -0.771,-0.585 -1.528,-1.41 -1.621,-2.666 -0.023,-0.318 -1.198,-1.129 -1.168,-1.37 0.114,-0.938 -0.22,-1.722 -0.248,-2.457 -0.005,-0.13 0.373,-0.371 0.464,-0.467 0.646,1.215 1.134,2.564 1.923,3.628 0.566,0.762 0.882,1.765 1.08,2.854 0.06,0.318 1.161,1.065 1.191,1.382 0.086,1.04 0.545,1.793 1.152,2.317 0.223,0.868 0.309,1.756 0.397,2.7 0.671,0.275 1.175,0.777 1.6,1.357 0.139,0.192 0,1.331 0,1.658 -0.399,-0.024 -0.897,0.165 -1.201,-0.172 M 364.147,29.593 361.756,28.408 c -0.188,-0.097 -0.61,-0.671 -0.794,-0.797 -0.237,-0.153 -1.045,-0.538 -1.323,-0.591 -0.305,-0.068 -1.343,0.116 -1.547,0 -0.432,-0.251 -1.059,-0.641 -0.91,-1.133 0.048,-0.158 0.376,-0.458 0.468,-0.458 h 2.253 l 3.504,0.775 c 0.89,0.825 2.039,1.287 3.066,1.788 0.25,0.116 0.761,0.676 0.844,0.883 0.075,0.146 0,0.74 0,0.868 -0.979,0.393 -2.354,0.279 -3.17,-0.15 m -72.543,382.143 c -0.309,0.023 -1.145,-0.465 -1.379,-0.618 -0.186,-0.12 -0.636,-0.636 -0.797,-0.798 0.265,-0.116 1.05,-0.516 1.326,-0.59 0.146,-0.051 0.637,0 0.804,0 0.334,-0.743 0.898,-1.314 1.461,-1.839 -0.11,-1.308 0.16,-2.318 0.415,-3.335 h 2.51 c 0.383,0 0.734,0.673 0.99,1.098 0.092,0.149 0.131,0.857 0.044,1.025 -0.149,0.297 -0.927,1.042 -1.206,1.239 -0.573,0.405 -1.481,0.7 -2.554,0.651 0.318,0.287 0.708,0.794 0.894,0.803 0.701,0.035 1.337,0.265 1.691,0.785 -0.467,0.423 -1.048,0.687 -1.47,1.15 -0.915,0.151 -1.805,0.364 -2.729,0.429 m 24.441,-8.775 c 0.276,-0.69 0.513,-1.503 0.369,-2.545 -0.033,-0.24 -0.98,-0.943 -1.134,-1.301 -0.086,-0.188 0.502,-0.125 0.772,-0.095 0.968,0.126 1.769,0.441 2.902,0.385 0.111,-0.002 0.411,-0.318 0.462,-0.434 0.168,-0.42 -0.172,-0.82 -0.39,-1.161 -0.183,-0.286 -0.996,-1.2 -1.249,-1.2 h -2.826 c -0.39,0 -0.797,0.483 -1.279,0.413 0,-0.197 -0.075,-0.794 0,-0.929 0.141,-0.274 0.369,-0.583 0.578,-0.611 0.931,-0.125 1.65,-0.747 2.491,-0.712 0.767,0.288 1.465,0.515 2.213,0.643 0.502,0.487 1.043,0.926 1.47,1.428 0.175,0.202 0.065,1.319 0,1.623 -0.053,0.279 -0.685,1.126 -0.587,1.44 0.285,0.908 0.15,1.89 -0.318,2.872 -0.447,0.2 -0.941,0.565 -1.324,0.985 -0.104,0.118 -0.892,0.046 -1.078,-0.042 -0.369,-0.181 -0.613,-0.629 -1.072,-0.759 M 227.302,30.754 c -1.124,0.009 -2.086,-0.4 -2.624,-0.767 -0.911,-1.372 -1.768,-2.886 -1.213,-4.688 0.096,-0.304 0.425,-0.669 0.669,-0.669 h 1.851 c 0.481,0.583 1.194,0.987 1.981,1.184 l 3.841,0.409 c 0,0.265 0.095,1.096 0,1.37 -0.121,0.323 -0.848,0.564 -0.535,1.004 0.305,0.422 0.934,0.578 1.484,0.78 0.149,0.049 0.727,-0.022 0.904,0.022 0.276,0.073 1.077,0.445 1.335,0.593 0.341,0.188 0.179,0.666 0.134,1.012 -0.009,0.072 -0.317,0.386 -0.413,0.386 h -5.297 z m 84.66,385.346 c -0.113,-0.01 -0.411,-0.319 -0.452,-0.421 -0.052,-0.139 0.046,-0.669 -0.026,-0.785 -0.168,-0.278 -0.999,-0.924 -1.191,-1.193 -0.168,-0.233 -0.529,-1.05 -0.597,-1.328 -0.055,-0.224 -0.067,-0.976 0,-1.171 0.183,-0.509 0.771,-0.885 1.312,-0.836 0.529,0.049 1.055,0.409 1.599,0.551 l 2.535,0.345 c 0.87,0.237 1.759,0.609 2.89,0.386 1.571,-0.307 3.056,-0.959 4.78,-1.229 0,0.367 0.101,1.238 0,1.382 -0.423,0.576 -0.929,1.08 -1.591,1.347 0,0.234 -0.051,0.882 0,1.082 0.027,0.102 0.318,0.372 0.399,0.464 l -2.113,0.988 -4.658,0.784 c -0.848,-0.237 -1.888,-0.29 -2.887,-0.366 m 7.139,-163.749 c 0.19,0.067 0.861,0.035 1.019,-0.035 0.325,-0.149 0.609,-0.401 0.732,-0.903 -1.162,-0.532 -2.281,-1.272 -3.015,-2.241 -0.127,-0.17 -1.27,0.102 -1.516,0 -0.313,-0.134 -1.059,-1.192 -1.326,-1.192 h -2.517 c 0,-0.187 0.07,-0.78 0,-0.914 -0.139,-0.276 -0.365,-0.592 -0.611,-0.623 -1.27,-0.183 -2.169,0.175 -3.07,0.435 l -1.305,-1.682 c -0.079,-0.099 -0.724,-0.076 -0.871,0 l -2.993,1.594 h -2.275 c -0.279,0 -1.126,-0.384 -1.389,-0.342 -0.502,0.081 -1.043,0.149 -1.514,0.332 -0.23,0.084 -0.753,0.762 -0.95,0.771 -1.354,0.045 -2.378,-0.183 -3.448,-0.378 l -1.977,0.404 c -0.575,0.107 -0.559,0.905 -1.028,1.205 -0.275,-0.237 -0.516,-0.476 -0.622,-0.82 -0.57,0.551 -1.013,1.389 -1.011,2.511 1.122,-0.217 2.083,-0.669 3.433,-0.497 l 1.881,-0.804 h 2.117 l 1.926,-0.824 c 1.139,0.044 2.221,0.348 3.375,0.416 l 4.371,0.008 2.585,0.799 c 0.229,0.068 1.105,-0.364 1.393,-0.399 0.334,-0.044 1.402,-0.1 1.718,0 0.214,0.063 0.734,0.669 0.824,0.694 1.997,0.574 3.576,1.266 5.307,1.84 0.255,0.083 0.603,0.592 0.757,0.645 m -28.76,111.214 c -0.248,-0.144 -0.465,-0.501 -0.486,-0.608 -0.057,-0.278 -0.192,-1.372 -0.028,-1.498 l 1.587,-1.232 c 0.152,-0.112 0,-1.104 0,-1.373 0.238,-0.04 0.954,-0.165 1.187,-0.205 0.8,-0.153 1.223,-1.179 0.928,-2.108 0.191,-0.188 0.525,-0.603 0.669,-0.662 0.13,-0.063 0.706,-0.067 0.766,0 0.453,0.507 1.122,0.713 1.879,1.022 0.787,-0.139 1.602,-0.458 2.654,-0.453 0.33,0.753 0.901,1.305 1.547,1.856 l 1.943,-0.609 c 0.33,-0.095 0.683,0.841 0.662,1.298 -0.033,0.795 0.295,1.489 0.269,2.22 -0.009,0.193 -0.641,0.743 -0.845,0.825 -0.207,0.076 -0.987,0.088 -1.217,0 -0.696,-0.265 -1.444,-0.597 -2.192,-0.757 -0.246,-0.054 -1.059,0.98 -1.358,1.156 -0.121,0.067 -0.662,-0.061 -0.797,0 l -1.855,0.792 -3.643,0.39 c -0.637,0.014 -1.328,0.144 -1.67,-0.054 M 238.009,50.388 c -1.795,-0.711 -3.509,-1.06 -5.278,-1.498 l -2.65,-1.208 -3.968,-0.411 c -0.256,-0.028 -0.755,-0.571 -0.372,-0.822 1.126,-0.72 2.548,-1.331 4.078,-1.737 l 3.311,-0.602 c 2.359,-0.214 4.649,-0.497 7.145,-0.308 1.682,0.13 3.235,0.689 4.863,1.191 0.095,0.032 0.694,0.501 0.776,0.703 0.355,0.892 1.014,1.524 1.767,2.019 0.251,0.16 0.546,0.401 0.404,0.765 l -3.321,0.4 c -0.267,0.655 -0.771,1.161 -1.335,1.575 -1.879,-0.018 -3.906,0.107 -5.42,-0.067 m 111.043,193.225 c 0.111,-0.242 0.445,-0.97 0.629,-1.231 0.197,-0.278 0.801,-0.274 1.014,-0.654 0.407,-0.744 0.797,-1.721 1.542,-2.265 1.287,-0.944 2.868,-1.623 4.296,-2.496 2.132,-1.303 4.222,-2.58 6.407,-3.904 l 3.198,-2.751 1.973,-1.214 1.603,-1.576 c 0.202,-0.187 0.504,-0.251 0.79,-0.197 0,0.11 -0.01,0.467 -0.035,0.578 -0.221,1.099 -0.467,2.164 -1.059,3.098 -0.564,0.188 -1.103,0.836 -1.268,1.616 -0.053,0.258 0.033,1.069 -0.026,1.32 -0.062,0.278 -0.436,1.107 -0.538,1.198 l -4.909,4.073 c -2.021,0.731 -4.25,1.618 -6.001,2.744 -1.286,0.147 -2.125,0.639 -2.737,1.273 l -4.325,0.734 c -0.222,0.039 -0.795,0.155 -0.554,-0.346 m -114.863,0.98 c -0.151,-0.086 -0.639,-0.307 -0.773,-0.418 -1.946,-1.637 -3.769,-3.406 -5.088,-5.85 -0.618,-0.45 -1.182,-1.228 -1.259,-2.361 l -2.419,-2.557 c -0.144,-0.155 -0.126,-1.384 0,-1.456 l 1.59,-0.929 c 0.091,-0.058 0.052,-0.859 0,-1.061 -0.028,-0.103 -0.302,-0.416 -0.378,-0.439 -0.218,-0.072 -0.648,-0.072 -0.66,0.42 -0.009,0.312 -0.597,1.032 -1.488,0.621 -0.279,-0.395 -0.553,-1.045 -0.861,-1.633 -0.161,-0.304 -1.016,-0.936 -1.185,-1.224 -0.067,-0.111 -0.1,-0.767 0,-0.833 0.532,-0.391 1.189,-0.669 1.79,-1.016 0,-0.131 -0.044,-0.544 0,-0.661 0.107,-0.304 0.416,-0.478 0.692,-0.636 0.084,-0.054 0.518,-0.049 0.546,-0.028 1.073,0.824 2.197,1.695 2.35,3.448 1.621,1.484 3.36,3.08 4.445,5.441 0.803,0.497 1.667,1.175 2.122,2.26 l 1.563,1.567 1.28,2.09 c 0.631,0.457 1.239,1.237 1.321,2.394 0.009,0.121 0.645,0.362 0.789,0.478 0.309,0.244 0.428,0.655 0.569,1.008 0.175,0.453 -0.22,0.847 -0.52,1.136 -0.139,0.139 -1.089,0.062 -1.365,0.264 -0.718,0.516 -2.199,0.462 -3.061,-0.025 m -3.878,5.501 c -0.457,0.109 -0.787,-0.859 -1.052,-1.173 -1.602,-1.885 -3.469,-3.356 -5.053,-4.692 l -1.349,-2.207 -1.983,-1.992 c -0.121,-0.116 -0.279,-0.674 -0.397,-0.795 l -1.986,-1.987 c -0.241,-0.241 -0.485,-1.481 -0.889,-1.774 -0.94,-0.671 -2.009,-1.721 -2.148,-3.393 0.241,0 0.827,-0.067 0.982,0 0.214,0.093 0.711,0.704 0.927,0.797 0.16,0.067 0.743,0 0.917,0 0.06,-0.291 0.042,-0.667 -0.362,-0.955 -0.694,-0.496 -1.54,-1.365 -1.626,-2.714 -0.016,-0.232 -0.838,-0.78 -0.84,-1.041 -0.037,-2.12 -0.962,-3.782 -2.232,-4.714 -0.306,-0.225 -0.198,-1.21 0.081,-1.704 0.298,-0.525 1.029,-0.487 1.414,-0.207 0.465,0.337 0.342,1.004 0.618,1.414 0.583,0.873 1.089,1.821 1.805,2.764 0.081,0.935 0.52,1.716 1.135,2.25 0.079,0.067 -0.046,0.596 0.017,0.664 l 1.362,1.484 3.609,5.54 1.965,2.002 2.027,2.747 1.967,2.009 c 0.12,0.116 0.28,0.674 0.397,0.794 l 2.561,2.56 c 0.739,0.273 1.156,1.102 1.212,1.887 -0.399,0.573 -0.898,1.084 -1.604,1.298 -0.449,0.418 -0.906,1.003 -1.475,1.138 m -13.009,28.486 2.183,-6.758 0.395,-2.784 -0.374,-2.789 c -0.606,-2.559 -1.82,-4.674 -2.496,-7.359 -0.028,-0.111 -0.593,-0.631 -0.708,-0.843 -0.084,-0.162 -0.116,-0.761 -0.198,-0.926 l -2.382,-4.77 c -0.084,-0.167 -0.121,-0.775 -0.181,-0.843 -1.022,-1.17 -1.666,-2.645 -1.986,-4.33 l -0.018,-1.982 c -0.188,0 -0.787,0.082 -0.93,0 -0.294,-0.16 -1.056,-0.915 -1.258,-1.188 -0.167,-0.228 -0.636,-1.067 -0.627,-1.394 0.023,-0.905 0.402,-1.662 0.495,-2.602 -0.351,-0.024 -0.495,0.347 -0.709,0.415 -0.259,0.086 -1.079,0 -1.344,0 0,-0.339 -0.125,-1.426 0,-1.744 0.169,-0.43 0.676,-0.926 1.091,-0.975 0.804,-0.077 1.598,-0.158 2.469,-0.477 0.288,-0.099 0.666,0.493 0.975,0.865 0.068,0.076 0.116,0.664 0.035,0.75 -0.337,0.355 -0.683,0.748 -0.757,1.232 -0.146,0.992 0.413,1.726 0.989,2.179 0.07,0.927 0.425,1.697 1.022,2.127 0.097,0.074 0.613,-0.035 0.65,0.016 0.716,1.057 1.338,2.218 2.237,3.11 0.132,0.13 -0.101,1.228 0.032,1.37 0.778,0.845 1.354,1.892 1.621,3.211 0.028,0.139 0.543,0.478 0.689,0.794 0.539,1.182 1.033,2.71 2.232,3.49 -0.181,0.623 -0.014,1.408 0.255,1.7 l 1.528,1.658 c 0.363,1.591 1.096,2.872 2.028,3.846 0.09,0.824 0.178,1.586 0.392,2.282 l -0.4,1.853 v 5.035 l -1.446,1.521 c -0.4,1.375 -1.454,2.313 -2.153,3.49 -0.805,0.736 -1.641,1.391 -2.336,2.197 -0.179,0.207 -0.968,0.515 -1.198,0.636 -0.079,-0.785 0.009,-1.437 0.183,-2.013 m -29.003,-79.482 c -0.358,-1.252 -0.887,-2.332 -1.791,-2.996 l -0.406,-1.905 c -0.056,-0.243 -0.836,-0.824 -0.996,-1.06 -0.158,-0.24 -0.52,-1.048 -0.597,-1.324 -0.044,-0.176 0.125,-0.862 0,-0.997 -0.448,-0.473 -0.964,-1.016 -1.168,-1.793 -0.058,-0.224 0.067,-0.988 -0.021,-1.181 -0.112,-0.251 -0.836,-0.826 -0.996,-1.064 -0.158,-0.241 -0.515,-1.047 -0.597,-1.326 -0.039,-0.143 0.082,-0.71 0,-0.794 l -1.588,-1.725 -0.4,-2.245 c -0.023,-0.154 -0.571,-0.5 -0.659,-0.734 -0.95,-2.634 -2.278,-5.014 -3.507,-7.489 -0.078,-0.16 -0.111,-0.772 -0.201,-0.922 -0.147,-0.246 -0.836,-0.82 -0.995,-1.057 -0.16,-0.239 -0.531,-1.049 -0.594,-1.326 -0.055,-0.224 0.13,-1.107 0,-1.222 -0.62,-0.529 -1.075,-1.291 -1.157,-2.216 -0.944,-1.234 -1.644,-2.565 -2.122,-4.301 -0.511,-0.335 -1.321,-0.878 -1.467,-1.805 -0.052,-0.311 0.088,-1.314 -0.026,-1.586 -0.128,-0.311 -1.126,-1.019 -1.189,-1.319 l -0.399,-1.857 c -0.033,-0.151 -0.565,-0.495 -0.667,-0.744 -0.455,-1.109 -0.97,-2.315 -1.416,-3.733 -0.012,-0.035 -0.427,-0.407 -0.502,-0.561 l -1.73,-3.585 c -0.141,-1.2 -0.594,-2.078 -1.214,-2.672 -0.146,-0.142 0.109,-1.273 -0.035,-1.426 l -1.988,-2.113 -0.402,-1.87 c -0.573,-0.485 -0.88,-1.218 -1.175,-2.076 -0.046,-0.13 0.077,-0.891 -0.014,-1.094 -0.109,-0.251 -0.833,-0.824 -0.991,-1.06 -0.16,-0.239 -0.52,-1.046 -0.599,-1.319 -0.04,-0.154 0.067,-0.674 0,-0.799 -0.13,-0.251 -0.869,-0.811 -0.994,-1.057 l -2.183,-4.51 c -0.06,-0.125 0.06,-0.689 0,-0.752 -0.933,-0.97 -1.435,-2.317 -1.556,-4.064 -0.803,-0.61 -1.562,-1.435 -1.653,-2.691 -0.026,-0.323 -1.101,-1.068 -1.166,-1.368 l -0.376,-1.997 c -0.341,-1.014 -1.015,-1.835 -1.242,-3.077 -0.794,-0.627 -1.261,-1.662 -1.953,-2.594 -0.009,-0.008 0.056,-0.443 -0.003,-0.543 -0.181,-0.299 -1.135,-1.026 -1.189,-1.324 -0.285,-1.62 -0.921,-2.965 -1.564,-4.175 -0.11,-0.207 0.018,-0.822 -0.026,-0.991 -0.075,-0.276 -0.374,-1.21 -0.632,-1.393 -0.682,-0.491 -1.3,-1.276 -1.377,-2.409 -0.016,-0.264 -0.815,-0.859 -0.975,-1.095 -0.158,-0.244 -0.518,-1.055 -0.593,-1.329 -0.043,-0.149 0.082,-0.734 0,-0.81 -0.578,-0.477 -0.879,-1.217 -1.177,-2.076 -0.072,-0.193 0.073,-1.192 -0.018,-1.512 -0.156,-0.551 -0.994,-0.497 -1.196,-1.031 -0.332,-0.873 -0.508,-2.023 -1.003,-2.777 -0.156,-0.24 -0.957,-0.853 -0.957,-1.045 0,-1.301 -0.536,-2.167 -1.189,-2.82 -0.111,-0.118 0.058,-0.891 -0.025,-1.008 l -1.591,-2.196 c -0.053,-0.077 0.079,-0.632 0,-0.799 -0.516,-1.172 -1.196,-2.178 -1.995,-3.227 -0.058,-0.077 -0.03,-0.748 -0.221,-0.974 -0.387,-0.467 -0.879,-1.089 -1.142,-1.859 -0.086,-0.246 -0.063,-1.178 -0.22,-1.318 -0.7,-0.63 -1.113,-1.579 -1.394,-2.818 -0.792,-0.934 -1.572,-2.246 -1.765,-4.05 -0.627,-0.407 -1.44,-0.948 -1.588,-1.879 -0.039,-0.253 0.025,-1.056 -0.023,-1.319 -0.031,-0.19 -0.23,-0.866 -0.43,-1.001 -0.585,-0.406 -1.193,-1.177 -1.17,-2.417 -0.729,-1.186 -1.739,-2.487 -1.967,-4.412 -0.622,-0.543 -1.08,-1.301 -1.173,-2.348 -0.645,-0.622 -1.135,-1.461 -1.291,-2.777 -0.652,-1.151 -1.4,-2.489 -2.313,-3.913 -0.037,-0.063 0,-0.882 0,-1.147 0.186,0 0.774,-0.067 0.927,0 0.204,0.088 0.734,0.604 0.864,0.792 0.16,0.239 0.515,1.054 0.594,1.326 0.042,0.151 -0.067,0.701 0,0.773 0.778,0.843 1.354,1.886 1.623,3.214 0.026,0.135 0.611,0.474 0.695,0.801 0.413,1.547 1.274,2.942 1.971,4.041 0.163,1.393 0.655,2.231 1.284,2.831 0.121,0.761 0.351,1.456 0.725,2.456 0.657,0.768 1.472,2.081 1.648,3.729 0.019,0.184 0.544,0.537 0.651,0.757 l 4.37,9.496 c -0.007,-0.014 0.931,0.782 0.929,1.029 -0.014,1.188 0.439,1.916 1.056,2.632 l 2.36,5.457 c 0.234,0.553 0.887,1.001 0.964,1.434 l 0.403,2.292 c 0.047,0.258 0.79,0.327 0.909,0.585 0.292,0.629 0.717,1.186 0.708,2.101 0.917,2.281 2.44,4.222 3.367,6.707 0.206,0.559 0.873,0.984 0.97,1.428 l 0.397,1.851 c 0.902,0.875 1.34,2.171 1.566,3.601 0.608,0.511 0.919,1.245 1.217,2.097 0.025,0.058 -0.061,0.578 0.006,0.699 0.135,0.251 0.874,0.813 0.994,1.057 l 2.186,4.505 c 0.041,0.09 -0.075,0.462 0,0.624 l 3.176,6.53 c 0.067,0.13 -0.063,0.674 0,0.799 0.135,0.246 1.015,0.785 1.141,1.21 0.38,1.311 1.009,2.728 1.804,3.634 0.45,1.53 0.966,2.731 1.695,3.532 1.351,3.283 2.782,6.393 4.254,9.4 l 2.333,5.775 c 0.049,0.128 0.776,0.704 0.897,0.955 l 1.788,3.706 c 0.074,0.15 -0.044,0.757 0,0.927 0.074,0.278 0.404,1.146 0.587,1.309 0.56,0.492 0.943,1.251 1.025,2.102 0.023,0.26 0.812,0.861 0.97,1.097 0.163,0.238 0.542,1.045 0.597,1.318 0.06,0.31 -0.158,1.423 0,1.593 l 1.57,1.702 c 0.207,0.64 0.353,1.344 0.286,2.18 -0.024,0.235 0.828,0.339 1.012,0.975 0.371,1.262 0.95,2.622 1.895,3.695 0.032,0.034 -0.04,0.501 0.009,0.55 0.738,0.76 1.106,1.835 1.572,2.899 0.065,0.146 -0.077,0.921 0.017,1.119 0.148,0.303 1.021,1.016 1.191,1.321 0.067,0.121 -0.112,0.703 0,0.887 1.07,1.744 1.971,3.724 3.186,5.687 -0.026,-0.045 -0.086,0.462 -0.01,0.606 l 1.594,2.991 c 0.144,0.269 -0.161,1.451 0,1.618 l 1.425,1.496 c 0.588,1.444 1.417,2.687 2.109,3.945 0.165,0.295 -0.049,1.124 0.042,1.312 0.146,0.316 1.019,1.029 1.193,1.328 0.067,0.126 -0.042,0.65 0,0.792 0.077,0.286 0.437,1.092 0.597,1.328 0.155,0.238 0.949,0.821 0.989,1.062 l 0.399,2.248 c 0.052,0.302 1.157,1.065 1.152,1.284 -0.004,0.543 0.212,1.628 -0.26,1.763 -0.26,0.067 -0.585,-0.463 -0.68,-0.792 m 102.04,223.873 c -2.051,-0.321 -4.366,-0.414 -6.163,-0.929 -0.291,-0.084 -0.827,-0.976 -1.259,-1.133 -1.596,-0.593 -3.485,-1.129 -5.137,-2.12 -0.426,-0.642 -0.972,-1.354 -1.618,-1.889 -0.237,-0.197 -0.645,-1.079 -0.645,-1.344 v -2.208 c 0.433,-1.05 1.161,-1.863 1.557,-3.015 0.084,-0.246 -0.362,-1.124 -0.362,-1.402 v -2.527 c 0.49,-0.334 1.031,-0.599 1.57,-0.859 0.209,-0.107 0.85,-0.701 0.831,-0.873 -0.13,-1.175 0.135,-2.11 0.425,-3.051 0.839,-0.834 1.552,-1.904 2.269,-3.112 0.2,-0.339 0.873,-0.478 1.423,-0.685 0.122,-0.044 0.623,-0.072 0.764,-0.023 0.307,0.109 0.646,0.434 0.646,0.722 0,2.538 -0.636,4.528 -0.813,7.011 -0.539,0.443 -0.843,1.182 -1.142,2.041 -0.051,0.151 0.044,0.975 -0.012,1.226 -0.063,0.274 -0.722,1.152 -0.632,1.393 0.242,0.625 0.318,1.454 0.2,2.471 l 3.081,3.017 c 2.337,0.504 4.373,1.312 6.433,2.026 1.266,-0.085 2.406,-0.215 3.483,-0.499 0.664,-0.169 1.278,-0.471 1.795,-0.859 1.045,-0.789 2.208,-1.551 3.465,-2.05 0.344,-0.13 0.971,-1.024 1.249,-1.194 0.116,-0.074 0.667,-0.046 0.733,0 0.639,0.423 1.197,1.173 1.023,2.215 -0.024,0.131 -0.293,0.683 -0.43,0.764 -0.139,0.077 -0.743,0 -0.927,0 v 2.121 c 0,0.092 -0.292,0.443 -0.426,0.492 -1.968,0.757 -3.825,1.644 -5.929,2.359 l -3.653,1.756 c -0.548,0.26 -1.261,0.237 -1.799,0.158 m 12.07,-129.281 h 9.537 c 1.507,0.053 2.956,0.36 4.379,0.418 0.467,0.023 1.53,-0.288 1.852,-0.427 0.211,-0.098 0.713,-0.753 0.924,-0.797 l 3.682,-0.815 c 1.013,-0.534 2.188,-1.036 3.723,-1.154 0.197,-0.016 0.736,-0.632 0.859,-0.845 0.255,-0.448 -0.318,-0.737 -0.613,-0.906 -0.92,-0.534 -1.697,-1.247 -2.742,-1.619 -0.858,-1.021 -2.002,-1.764 -3.184,-2.412 -0.153,-0.084 -0.541,-0.453 -0.46,-0.416 -3.551,-1.528 -7.129,-2.712 -11.2,-3.376 -1.453,0.095 -3.074,0.018 -3.666,-0.126 -2.743,0.307 -5.074,0.379 -7.326,0.539 -2.334,0.808 -4.986,1.203 -7.533,1.87 -1.914,0.496 -3.823,1.124 -5.472,1.806 -0.285,0.121 -0.622,0.636 -0.773,0.699 -0.134,0.054 -0.645,-0.021 -0.771,0.023 -0.553,0.207 -1.112,0.409 -1.618,0.787 0.099,0.728 1.003,1.347 1.76,1.338 2.074,0.662 3.962,1.447 5.896,2.252 2.085,0.168 4.391,0.249 6.226,0.742 0.343,0.094 1.06,1.102 1.355,1.169 1.719,0.412 3.382,1.085 5.165,1.25 M 340.49,55.259 c -0.318,0.018 -1.182,-0.45 -1.344,-0.634 -0.496,-0.56 -1.276,-0.873 -2.165,-0.954 l -1.841,-1.812 c -0.202,-0.197 -1.059,-0.578 -1.352,-0.608 -1.196,-0.125 -2.324,-0.337 -3.421,-0.608 -0.745,-0.186 -1.392,-0.491 -1.959,-0.899 -0.135,-0.098 -0.137,-1.191 -0.035,-1.316 0.654,-0.772 1.035,-1.754 1.851,-2.395 0.717,-1.34 0.945,-3.123 1.26,-5.12 0.012,-0.067 -0.248,-0.898 -0.32,-1.178 -0.106,-0.403 0.086,-0.796 0.425,-0.915 0.279,-0.096 0.741,-0.213 1.036,0.177 -0.138,0.323 -0.516,1.227 -0.138,1.549 0.514,-0.411 0.904,-0.945 1.06,-1.539 0.111,-0.414 0.59,-0.862 0.931,-0.862 h 2.733 l 2.234,-1.614 c 0.745,0.014 1.497,0.282 2.252,0.386 0.312,0.046 0.748,0.187 1.033,-0.221 0.63,0.225 1.419,0.437 2.344,0.432 1.544,0.608 3.248,0.994 5.028,1.402 l 1.852,0.797 c 2.636,0.718 5.443,1.2 8.312,1.613 0.334,0.047 0.526,0.4 0.656,0.683 0.082,0.156 0.149,0.915 0.04,1.027 l -1.589,1.716 c -0.111,0.125 -0.083,0.794 -0.216,0.998 l -1.296,2.046 c -1.755,1.129 -3.074,2.661 -3.81,4.559 -0.112,0.281 -0.703,0.778 -0.905,0.883 -0.103,0.047 -0.59,-0.068 -0.663,0 l -2.117,1.985 z m -13.854,201.929 c -0.241,-0.787 -1.08,-1.212 -2.009,-1.203 l -1.605,-2.443 c -0.064,-0.097 -0.645,-0.063 -0.74,0 -0.3,0.179 -1.061,1.191 -1.326,1.191 h -2.253 c -0.183,0 -0.72,-0.8 -0.979,-0.84 -0.488,-0.072 -1.082,0.381 -1.672,0.2 -0.14,-0.04 -0.532,-0.411 -0.486,-0.393 -1.685,-0.545 -2.928,-1.316 -4.481,-1.711 -0.249,-0.065 -1.11,0.397 -1.528,0.402 -4.106,0.037 -8.411,-0.999 -12.052,-0.776 l -6.751,0.722 c -0.949,0.499 -1.811,-0.048 -2.949,-0.053 l 0.634,-1.753 c -0.55,-0.848 -0.948,-1.663 -1.711,-2.135 -0.125,-0.081 -0.816,-0.081 -1.008,-0.02 -0.3,0.093 -0.622,0.43 -0.625,0.694 -0.009,0.685 0.2,1.303 0.367,1.862 l -0.608,1.814 c -0.235,0.68 -0.755,1.151 -1.331,1.553 -0.409,0.288 -1.071,0.319 -1.651,0.193 -0.084,-0.018 -0.364,-0.318 -0.393,-0.42 -0.053,-0.197 -0.104,-0.945 0,-1.059 l 1.591,-1.721 c 0.105,-0.121 0.11,-0.979 0,-1.073 -0.599,-0.487 -0.866,-1.263 -1.147,-2.108 -0.058,-0.183 0.404,-1.071 0.35,-1.321 l -0.396,-1.858 v -4.222 c 0,-0.485 0.762,-0.856 1.288,-0.829 0.59,0.026 1.159,0.342 1.475,0.839 0.089,0.143 -0.037,0.847 0.018,0.977 0.147,0.314 0.418,0.71 0.804,0.474 0.163,-0.103 0.683,-0.613 0.787,-0.816 0.054,-0.101 -0.081,-0.596 0,-0.694 0.43,-0.504 0.969,-0.94 1.461,-1.426 0.132,-0.13 1.057,0 1.328,0 0.061,0.704 -0.232,1.259 -0.376,1.659 0.153,0.834 0.538,1.451 1.342,1.715 0.349,0.112 0.834,-0.652 1.426,-0.787 0.465,-0.104 0.815,0.393 1.319,0.147 0.415,-0.204 0.814,-0.59 1.052,-1.022 0.109,-0.193 0,-1.05 0,-1.309 0.843,-0.089 1.555,0.157 2.155,0.359 0.262,0.091 1.14,-0.362 1.421,-0.362 h 5.654 c 0.757,0.738 1.827,1.124 2.958,1.621 0.576,-0.111 1.301,-0.469 2.132,-0.455 0.045,0.304 -0.267,0.434 -0.459,0.655 2.444,1.149 5.259,1.903 7.965,3.139 -0.056,-0.028 0.478,0.518 0.694,0.601 0.179,0.073 0.868,-0.062 1.038,0 0.508,0.194 0.631,0.772 0.885,1.166 0.225,0.342 0.664,0.62 1.064,0.592 0.713,-0.046 1.33,-0.499 1.748,-0.963 h 1.885 c 0.251,0 1.04,0.926 1.261,1.191 0.111,0.134 0.364,0.627 0.395,0.798 0.049,0.228 -0.063,0.971 0,1.192 0.03,0.093 0.358,0.353 0.465,0.399 0.116,0.04 0.542,0.04 0.662,0 0.301,-0.113 0.622,-0.427 0.642,-0.726 0.037,-0.555 -0.194,-1.977 0.433,-2.198 -0.158,2.409 0.239,4.244 0.415,6.147 0.016,0.168 -0.325,0.516 -0.439,0.56 -0.422,0.172 -1.126,-0.151 -1.249,-0.536 -0.304,-0.955 -1.21,-1.992 -2.657,-1.849 -0.308,0.031 -0.288,0.384 -0.209,0.611 0.068,0.193 0.497,0.193 0.611,0.439 0.277,0.615 0.99,1.196 1.614,1.386 0.46,0.667 0.636,1.328 0.68,2.123 h 1.222 c 0,0.188 -0.074,0.775 0,0.929 0.088,0.202 0.636,0.689 0.771,0.838 -0.309,-0.014 -0.829,0.188 -0.922,-0.107 m -41.978,131.873 c 0.347,0 1.399,0.076 1.721,0 0.307,-0.077 0.502,-0.412 0.615,-0.695 0.098,-0.237 0.219,-1.296 0.052,-1.474 l -2.258,-2.2 h -2.515 l -0.396,-1.992 v -4.5 c 0,-0.286 0.436,-0.453 0.752,-0.734 0.75,0.341 1.781,0.467 2.417,-0.144 l 2.789,-2.766 c 0.123,-0.116 0.657,-0.299 0.78,-0.422 1.298,-1.24 2.806,-2.218 4.366,-3.33 0.154,-0.107 1.187,0.046 1.386,-0.021 0.858,-0.3 1.589,-0.62 2.095,-1.224 3.861,-0.52 7.842,-0.992 11.652,-1.498 1.171,-0.16 2.009,0.53 2.627,1.131 h 3.838 c 0.485,0 0.558,0.998 0.906,1.147 0.81,0.335 1.189,1.249 1.762,1.99 0.644,3.335 1.166,6.827 1.157,10.891 0,0.197 -0.606,0.755 -0.613,0.766 -0.544,1.803 -1.468,3.075 -2.125,5.128 -0.654,0.74 -1.79,1.915 -2.073,3.703 -0.064,0.381 -0.6,0.695 -1.011,0.983 -0.083,0.058 -0.516,-0.014 -0.634,0.03 -0.3,0.111 -0.666,0.434 -0.666,0.673 v 2.372 c 0,0.188 -0.279,0.777 -0.377,0.891 l -3.032,3.59 c -0.211,0.269 -0.927,1.059 -1.222,1.219 -0.303,0.156 -1.388,0.448 -1.834,0.421 -1.172,-0.079 -2.38,-0.282 -3.497,-0.416 -1.326,-0.955 -2.659,-1.739 -3.931,-2.608 l -1.601,-1.57 c -0.12,-0.12 -0.675,-0.274 -0.877,-0.439 -0.258,-0.215 -0.328,-0.794 -0.731,-0.861 -0.416,-0.067 -0.674,0.471 -1.045,0.655 -0.189,0.09 -0.876,0.125 -1.057,0.044 -0.202,-0.079 -0.729,-0.604 -0.859,-0.792 -0.202,-0.288 -0.56,-1.344 -0.794,-1.593 l -1.394,-1.451 c -0.104,-0.116 -0.072,-0.878 0,-1.062 0.088,-0.215 0.69,-0.717 0.796,-0.928 0.052,-0.105 0.064,-0.622 0,-0.669 -0.708,-0.488 -1.664,-0.762 -2.646,-1.047 -0.526,0.153 -1.141,0.376 -1.824,0.366 -0.325,-0.004 -0.557,-0.371 -0.699,-0.654 -0.067,-0.13 0,-0.727 0,-0.91 m -16.531,-15.508 c -0.202,0.021 -0.527,-0.559 -0.529,-0.641 -0.112,-2.673 0.167,-5.076 0.431,-7.449 0.022,-0.207 0.802,-0.799 0.913,-1.022 0.112,-0.225 0.026,-0.516 -0.251,-0.722 0.516,-3.061 0.862,-6.293 1.391,-9.242 0.908,-5.044 1.306,-10.445 1.993,-15.496 0.954,-7.024 1.628,-14.169 3.43,-20.358 0.053,-0.186 -0.01,-1.078 0.02,-1.361 0.249,-2.116 0.917,-3.948 1.071,-5.975 0.657,-8.866 2.429,-16.485 3.038,-25.162 0.194,-2.806 0.694,-5.223 1.063,-7.675 l 0.385,-5.302 v -7.417 l 1.392,-1.456 c 0.232,-0.248 0.593,-1.307 0.792,-1.593 0.157,-0.227 0.78,-0.815 1.005,-0.982 0.451,-0.332 1.033,-0.564 1.627,-0.309 0.27,0.112 0.328,0.583 0.616,0.95 0.2,0.251 0.824,0.223 1.201,-0.058 -0.168,-0.506 -0.365,-1.022 -0.242,-1.614 0.931,0.125 1.7,0.014 2.306,-0.223 0.285,0.29 0.95,1.096 1.251,1.254 0.395,0.207 0.813,-0.227 1.157,-0.439 0.69,-0.418 0.847,-1.272 1.349,-1.72 1.438,-0.319 2.742,-0.667 3.996,-0.878 l 2.759,1.235 c 0.265,0.125 1.313,0.109 1.589,0 0.25,-0.088 0.819,-0.829 1.058,-0.989 0.242,-0.16 1.087,-0.659 1.375,-0.62 l 1.944,0.427 c 0.297,0.063 1.033,1.191 1.356,1.215 1.256,0.092 2.122,0.761 2.705,1.532 0.091,0.112 0.781,0.17 0.973,0.026 0.75,-0.565 2.188,-1.031 3.73,-0.704 -0.693,0.673 -1.45,0.978 -2.146,1.354 v 1.145 c 1.444,0.622 2.703,1.474 3.943,2.169 0.996,0.116 1.795,0.223 2.591,0.424 0.462,0.365 0.937,1.057 1.466,1.225 0.824,-0.251 1.448,-0.56 2.055,-0.844 h 1.999 c 0.288,0 0.478,0.418 0.641,0.69 0.049,0.091 -0.018,0.52 0.024,0.632 0.037,0.113 0.299,0.441 0.394,0.466 0.223,0.063 0.993,-0.083 1.194,0 0.197,0.091 0.794,0.69 0.794,0.862 v 2.241 c 0,0.48 -0.755,0.685 -1.189,0.919 0,0.233 -0.128,1.004 0,1.115 0.531,0.495 1.112,1.049 1.37,1.795 0.283,10.331 0.585,22.894 -0.177,33.541 l -0.798,3.711 -0.026,2.246 -4.344,23.997 c -0.843,1.636 -1.373,3.659 -1.529,5.64 -1.151,2.666 -1.557,5.619 -2.84,7.93 -0.162,0.29 0.536,0.699 0.752,1.11 0.077,0.144 0.077,0.655 0.04,0.804 -0.079,0.271 -0.487,1.056 -0.589,1.325 -0.623,1.605 -0.791,3.546 -1.399,5.195 v 3.256 c 0,0.295 -0.438,0.59 -0.789,0.676 -2.167,-2.801 -5.197,-4.738 -7.572,-7.32 l -3.163,-2.013 c -0.334,-0.204 -0.402,-0.72 -0.72,-0.936 -0.212,-0.149 -0.831,0.04 -0.925,-0.225 l 0.881,-0.439 c -1.896,-0.704 -3.563,-1.654 -5.595,-2.169 -2.247,-0.107 -4.3,0.121 -6.325,0.443 l -2.552,1.147 c -0.195,0.086 -0.975,-0.071 -1.193,0 -0.151,0.049 -0.521,0.488 -0.672,0.574 -1.911,1.117 -3.715,2.411 -5.942,3.214 -0.564,0.207 -1.038,0.876 -1.472,0.901 -0.996,0.063 -1.795,0.636 -2.285,1.319 -0.1,0.133 0.081,1.035 -0.028,1.124 -0.483,0.418 -0.706,1.031 -1.003,1.681 -0.887,0.569 -1.649,1.317 -2.334,2.076 -0.151,0.16 -0.68,0.348 -0.825,0.453 -1.088,0.766 -1.639,2.067 -2.563,2.984 -0.192,0.197 -0.627,1.04 -0.627,1.305 v 4.37 c 0,0.288 -0.432,0.453 -0.725,0.708 -0.706,-0.408 -1.926,-0.148 -2.691,-0.053 m 93.624,-143.457 c 0.416,-0.848 0.895,-1.649 1.213,-2.555 0.081,-0.229 -0.451,-1.165 -0.609,-1.416 -0.121,-0.19 -0.638,-0.637 -0.787,-0.79 -0.657,1.071 -1.049,2.371 -1.507,3.488 -0.082,0.202 -0.451,0.448 -0.557,0.476 -0.17,0.049 -0.741,0 -0.927,0 v -1.848 l 1.807,-3.716 h 1.372 l 0.399,-4.375 c 0.435,-2.213 1.482,-3.989 1.999,-6.215 l 0.981,-2.125 c 0.116,-0.251 0.938,-0.834 0.959,-1.079 0.084,-0.917 0.216,-1.801 0.446,-2.674 1.012,-0.358 1.78,-1.229 1.952,-2.348 l 0.022,-5.025 c 0.183,0 0.878,-0.156 1.051,0 0.924,0.815 1.194,2.738 0.727,4.656 0.019,0.401 0.386,0.991 0.888,1.301 0.178,0.118 1.042,0 1.306,0 v -2.911 c 0,-0.185 -0.765,-0.752 -0.758,-0.935 0.092,-1.47 -0.216,-2.636 -0.498,-4.016 -0.859,-0.652 -2.096,-1.183 -3.306,-1.682 -0.367,-0.152 -0.615,0.209 -0.78,0.418 -0.184,0.219 -0.609,1.048 -0.6,1.358 0.059,2.152 0.286,4.277 0.645,6.065 0.047,0.235 -0.391,0.83 -0.531,0.911 -0.141,0.079 -0.743,0 -0.95,0 0.16,-0.929 -0.221,-1.62 -0.225,-2.37 -0.316,-0.578 -0.404,-1.311 -0.544,-2.001 l -0.817,-5.569 c -0.037,-2.019 -0.025,-3.89 -0.411,-5.396 l 0.436,-2.169 c -0.292,-1.686 -0.712,-3.358 -0.8,-5.151 l 0.392,-3.708 c 0.283,-4.277 0.1,-9.147 0.548,-12.981 -0.258,-5.461 -0.564,-10.948 -0.553,-16.42 l 0.804,-6.497 0.796,-1.851 v -2.386 l 0.807,-3.772 -0.811,-10.651 c -0.729,-1.515 -1.176,-3.379 -1.642,-5.351 -0.597,-1.073 -1.224,-2.401 -1.459,-3.952 -0.445,-2.966 -0.81,-5.968 -0.868,-9.129 l 0.386,-7.021 c 0.232,-2.086 0.757,-3.909 0.811,-6.357 l 0.789,-7.421 0.794,-20.402 0.397,-2.316 -0.397,-1.786 0.801,-2.607 c -0.495,-1.581 -0.869,-3.314 -1.177,-5.058 l -1.637,-1.707 c -0.66,-0.199 -1.157,-0.71 -1.605,-1.346 0.063,-2.139 0.764,-3.867 1.332,-5.815 l 1.692,-1.749 c 0.231,-0.246 0.557,-1.353 0.794,-1.586 l 2.405,-2.389 c 0.093,-0.09 0.571,0 0.876,0 0.657,-1.191 1.556,-2.367 3.007,-3.093 0.613,-0.673 1.358,-1.435 2.253,-2.009 0.471,-1.013 0.875,-2.021 1.599,-2.752 0.191,-0.187 0.388,-1.34 0.388,-1.686 v -4.992 c -0.718,-0.534 -1.476,-1.14 -2.396,-1.526 -1.719,-0.724 -3.792,-0.961 -5.815,-1.418 l -1.853,-0.804 -4.108,-0.397 h -5.566 l -4.368,0.792 -1.871,0.803 c -1.106,-0.09 -1.912,0.184 -2.648,0.386 -2.417,1.721 -4.955,3.172 -7.336,4.723 -0.299,0.987 -1.065,1.503 -1.753,1.913 -0.42,0.811 -0.62,1.638 -1.252,2.086 -0.964,0.678 -1.729,1.595 -2.533,2.433 -0.195,0.203 -0.274,0.491 -0.216,0.771 h 1.976 c 0,0.265 0.138,1.224 0,1.336 -0.508,0.415 -0.801,1.079 -1.108,1.627 -0.854,0.298 -1.409,0.878 -1.899,1.407 -0.079,0.086 -0.602,0.033 -0.654,-0.025 -0.342,-0.388 -0.881,-0.966 -0.651,-1.521 0.216,-0.525 0.885,-1.085 1.33,-1.609 0.091,-0.103 0.056,-0.681 0,-0.816 -0.037,-0.104 -0.364,-0.384 -0.48,-0.389 -0.957,-0.063 -1.918,-0.238 -2.752,-0.453 -1.224,0.55 -2.139,1.316 -3.302,1.867 -1.179,1.092 -2.645,1.852 -3.982,2.777 -1.178,0.815 -1.47,2.791 -1.101,4.563 0.063,0.276 -1.043,1.157 -1.173,1.224 -1.713,0.914 -2.619,2.45 -3.571,3.88 -0.525,0.794 -0.957,1.7 -1.712,2.269 -0.232,0.172 -0.403,1.402 -0.403,1.749 v 2.516 l -0.384,1.782 c 0.325,1.609 0.544,3.223 0.769,4.843 0.048,0.337 -0.061,1.396 0.011,1.719 l 1.194,5.302 0.009,13.11 c -0.517,2.968 -1.289,5.743 -1.542,8.885 -0.301,3.729 -0.729,7.352 -0.829,10.986 l -0.025,15.9 -0.397,15.1 -0.4,4.239 -0.796,3.712 v 1.847 c 0,0.361 -0.734,1.098 -1.082,1.012 -0.948,-0.232 -1.879,-0.604 -2.891,-0.671 -4.986,-0.318 -9.819,-0.708 -14.7,-0.868 h -19.738 c -0.265,0 -1.089,-0.428 -1.328,-0.593 -0.189,-0.13 -0.752,-0.666 -0.792,-0.861 l -0.801,-3.976 c -0.857,-2.097 -1.544,-4.474 -2.234,-6.876 -0.548,-1.901 -1.147,-3.814 -1.832,-5.459 -0.12,-0.288 -0.669,-0.632 -0.703,-0.824 -0.825,-4.87 -1.997,-9.482 -2.796,-14.396 -0.14,-9.427 -0.196,-18.927 -0.772,-27.949 -0.71,-2.99 -1.588,-5.897 -1.892,-9.153 -0.13,-1.377 -0.221,-2.492 -0.444,-3.563 -0.118,-0.559 0.256,-1.13 0.346,-1.655 0.047,-0.261 -0.413,-1.127 -0.388,-1.461 0.214,-2.738 -0.672,-4.644 -1.599,-6.298 -0.118,-0.215 0.047,-0.805 -0.017,-0.863 -0.937,-0.959 -1.389,-2.383 -1.505,-3.953 -0.02,-0.276 -0.802,-0.806 -0.84,-1.024 -0.193,-1.088 -0.557,-2.047 -1.017,-2.895 l -1.591,-1.591 c -0.19,-0.193 -0.534,-1.045 -0.597,-1.328 -0.057,-0.274 0.042,-1.168 0,-1.452 -0.037,-0.28 -0.352,-1.119 -0.337,-1.228 0.196,-1.577 0.706,-2.789 1.234,-3.864 -0.567,-1.301 -0.625,-3.138 -0.277,-4.136 -0.601,-2.273 -0.805,-4.514 -0.975,-6.586 -1.117,-1.574 -1.799,-3.276 -2.587,-4.818 l -2.67,-2.668 c -0.773,-0.349 -1.625,-0.681 -2.246,-1.384 -3.183,-0.678 -6.957,-0.815 -10.551,-1.157 l -1.686,-0.352 -9.154,1.142 -2.144,1.003 -2.168,2.169 c -0.346,0.708 -0.783,1.377 -0.973,2.148 -0.379,1.551 -0.692,3.128 -0.864,4.823 0.286,2.554 0.678,4.863 1.256,7.213 l 2.15,6.502 c 0.17,0.547 -0.065,1.14 -0.429,1.56 -0.683,0.79 -1.475,1.484 -2.153,2.23 l -0.002,3.23 c -0.539,4.321 -1.939,7.987 -3.177,11.471 v 3.365 c 0,0.278 -0.397,1.112 -0.397,1.391 0,0.276 0.397,1.115 0.397,1.393 l -0.011,2.916 c 0.197,1.561 0.894,3.005 0.782,4.828 -0.202,3.27 -0.787,6.277 -1.094,9.352 -0.441,4.442 -0.828,8.861 -0.762,13.505 0.11,7.721 0.679,15.28 2.072,21.856 l 1.779,11.929 c 0.278,4.484 0.019,7.972 -0.091,12.47 -0.009,0.343 -0.511,0.896 -0.959,0.999 -1.279,0.285 -2.596,0.559 -3.697,1.038 l -3.181,1.583 -2.392,2.408 c -0.109,0.906 -0.467,1.626 -0.794,2.253 -0.097,2.68 -0.181,5.334 -0.399,7.858 0.511,5.383 0.766,10.94 1.479,16.281 1.495,11.209 2.385,23.1 3.769,34.71 0.167,1.411 0.597,2.774 0.71,4.385 0.585,0.488 0.904,1.224 1.201,2.073 0.044,0.13 0.121,0.964 -0.04,1.153 -0.506,0.583 -1.375,0.801 -1.871,1.254 -0.419,1.49 -1.907,1.79 -3.256,2.122 -0.253,0.062 -1.266,0.16 -1.398,-0.028 -0.78,-1.112 -1.447,-2.461 -2.037,-3.906 -0.633,-1.562 -1.409,-3.081 -2.293,-4.235 -0.193,-0.251 -0.14,-0.932 -0.233,-1.089 -0.183,-0.295 -1.022,-1.018 -1.194,-1.326 -0.065,-0.116 0.04,-0.646 0,-0.787 -0.078,-0.28 -0.436,-1.092 -0.596,-1.326 -0.156,-0.24 -0.925,-0.846 -0.941,-1.057 -0.125,-1.864 -1.421,-2.951 -1.871,-4.493 -0.167,-0.574 -0.788,-0.988 -0.92,-1.41 l -0.785,-2.468 c -1.493,-2.179 -2.403,-4.582 -3.462,-6.853 -0.98,-1.022 -1.08,-2.88 -2.192,-4.041 -0.005,0 -0.077,-0.583 -0.16,-0.743 l -2.78,-5.568 c -0.084,-0.16 -0.116,-0.767 -0.2,-0.927 -0.116,-0.211 -0.689,-0.713 -0.799,-0.927 -0.049,-0.104 0.042,-0.561 -0.034,-0.654 -0.358,-0.446 -0.75,-0.901 -0.937,-1.47 -0.333,-1.019 -0.68,-2.004 -1.444,-2.678 -0.179,-1.653 -0.963,-2.964 -1.704,-3.84 -0.244,-0.288 -0.14,-1.05 -0.281,-1.166 -0.606,-0.525 -1.04,-1.31 -1.117,-2.195 -1.201,-1.588 -1.891,-3.381 -2.499,-5.071 -0.116,-0.327 -0.689,-0.655 -0.724,-0.811 l -0.397,-1.85 c -0.035,-0.149 -0.567,-0.485 -0.72,-0.799 L 153.304,114.45 c -0.076,-0.164 -0.109,-0.78 -0.235,-0.935 -0.35,-0.432 -0.789,-0.885 -0.912,-1.463 -0.334,-1.607 -1.519,-2.508 -1.988,-4.227 -0.696,-0.77 -1.214,-1.971 -1.676,-3.548 -0.743,-0.871 -1.526,-2.182 -1.702,-3.834 -0.017,-0.188 -0.537,-0.549 -0.614,-0.708 -1.11,-2.19 -2.289,-4.338 -3.12,-6.665 -0.091,-0.255 -0.602,-0.59 -0.672,-0.743 -0.049,-0.106 0.037,-0.559 -0.039,-0.659 -0.358,-0.443 -0.732,-0.908 -0.938,-1.465 -1.688,-4.533 -4.05,-8.441 -5.984,-12.712 -0.066,-0.153 -0.509,-0.511 -0.59,-0.669 -0.082,-0.157 -0.116,-0.763 -0.221,-0.959 -1.395,-2.647 -2.71,-5.428 -3.883,-8.234 -0.102,-0.241 -0.587,-0.585 -0.664,-0.735 -0.083,-0.165 -0.123,-0.765 -0.206,-0.927 -1.226,-2.476 -2.552,-4.854 -3.505,-7.483 -0.085,-0.241 -0.619,-0.596 -0.626,-0.728 -0.13,-1.865 -1.261,-3.015 -1.875,-4.483 l -4.084,-8.15 c 0.028,0.051 -0.367,-0.339 -0.399,-0.448 l -0.869,-2.731 c -0.272,-0.444 -0.864,-0.755 -1.5,-0.783 -0.381,-0.018 -0.901,0.228 -1.012,0.556 -0.258,0.775 -0.883,1.3 -1.472,1.795 -0.112,0.092 -0.934,-0.047 -1.085,0.044 -0.246,0.148 -0.606,0.385 -0.455,0.748 0.237,0.578 0.299,1.232 0.353,1.648 1.019,1.584 1.843,3.103 2.605,4.524 l 1.939,4.644 c 0.602,0.659 0.969,1.47 1.147,2.348 0.161,0.789 0.532,1.509 0.932,1.844 0.852,2.312 2.01,4.11 2.674,6.116 0.618,0.682 1.032,1.484 1.139,2.529 l 1.432,2.698 c 0.191,1.489 0.952,2.341 1.447,3.049 0.307,1.527 1.119,2.306 1.63,3.253 0.153,1.316 0.55,2.213 1.259,3.061 0.081,0.1 0.452,0.901 0.531,1.179 0.04,0.147 -0.079,0.735 0.024,0.816 0.868,0.662 1.326,1.766 1.762,3.02 l 3.202,7.151 c 1.417,1.927 2.042,4.577 3.221,6.736 l 2.752,5.575 c 0.077,0.172 0.086,0.79 0.211,0.948 0.351,0.437 0.776,0.887 0.915,1.465 0.365,1.475 1.254,2.42 1.821,3.532 0.132,0.255 -0.037,0.838 0.014,0.897 0.882,0.949 1.267,2.226 1.857,3.474 1.464,3.084 2.854,6.33 4.489,9.277 0.079,0.148 -0.051,0.713 0.017,0.784 0.775,0.843 1.318,1.911 1.569,3.17 0.864,0.95 1.329,2.169 1.825,3.483 0.309,0.813 0.913,1.48 1.055,2.545 0.062,0.432 0.722,0.878 0.87,1.448 0.493,1.987 1.835,3.273 2.457,5.133 0.063,0.189 0.051,0.846 0.186,0.959 0.608,0.53 1.145,1.301 1.24,2.376 0.037,0.439 0.69,0.91 0.901,1.467 0.406,1.065 0.68,2.216 1.154,3.119 0.167,0.312 0.915,0.864 1.047,1.111 0.065,0.125 -0.028,0.649 0.01,0.726 0.462,1.064 0.838,2.139 1.442,2.752 0.645,1.667 1.265,3.147 1.957,4.586 0.92,1.066 1.338,2.599 1.807,3.824 0.135,0.354 0.713,0.688 0.729,0.851 0.163,1.797 1.235,3.083 1.712,3.908 0.366,1.646 0.782,2.591 1.467,3.214 0.269,1.323 0.829,2.37 1.6,3.209 0.26,1.291 0.817,2.345 1.596,3.184 0.065,0.076 -0.091,0.657 0.027,0.9 0.831,1.653 1.902,3.156 2.459,5.065 0.081,0.279 0.627,0.613 0.692,0.766 0.054,0.14 -0.12,0.713 0.04,0.964 0.78,1.223 1.6,2.64 2.013,4.191 0.086,0.323 0.66,0.659 0.694,0.772 l 0.871,2.751 c 0.135,0.425 0.746,0.834 0.934,1.398 0.332,1.02 0.678,2.009 1.409,2.65 l 0.405,1.882 c 0.095,0.445 0.8,0.86 0.956,1.429 0.479,1.739 1.479,3.017 2.213,4.316 0.151,0.256 -0.065,0.858 0,0.978 0.172,0.307 0.982,1.05 1.022,1.146 1.217,3.167 2.656,5.856 3.978,9.04 0.004,0.015 0.898,0.77 0.963,1.075 l 0.4,1.869 c 0.648,0.654 1.214,1.486 1.212,2.791 0.597,0.573 1.089,1.412 1.219,2.543 0.416,0.945 0.801,2.011 1.539,2.767 0.258,1.276 0.813,2.323 1.591,3.168 v 1.828 l -1.788,1.855 c -0.118,0.125 -0.281,0.678 -0.397,0.797 l -1.806,1.804 c -0.242,0.246 -0.748,0.264 -0.953,0.534 -0.137,0.183 -0.301,0.72 -0.422,0.836 l -1.786,1.793 c -0.118,0.123 -0.676,0.278 -0.794,0.399 l -3.776,3.774 c -0.12,0.123 -0.276,0.677 -0.397,0.794 l -2.782,2.78 c -0.297,0.856 -0.994,1.416 -1.553,1.913 -0.304,0.274 -0.635,1.384 -0.864,1.639 -1.087,1.217 -1.939,2.562 -2.949,3.964 -0.016,0.028 0.023,0.453 -0.005,0.483 -1.414,1.74 -2.923,3.305 -4.087,5.169 -0.462,0.743 -1.059,1.364 -1.69,1.914 -0.375,0.847 -0.711,1.695 -1.373,2.278 l -0.401,2.28 c -0.077,0.439 -0.811,0.862 -0.99,1.426 l -1.182,3.973 c -0.099,0.33 -0.118,1.405 -0.206,1.558 -0.688,1.224 -1.703,2.027 -2.093,3.244 -0.555,1.733 -1.848,2.755 -2.22,4.484 -0.367,1.698 -1.107,3.044 -1.286,4.877 -0.864,1.816 -1.326,4.038 -1.979,6.293 0.084,3.311 0.551,6.428 0.834,9.744 1.266,4.114 2.016,8.745 2.961,13.12 l 0.643,4.625 c 0.841,2.891 2.06,5.59 3.694,7.489 0.263,0.92 0.446,1.637 0.892,2.143 0.943,1.069 1.591,2.385 2.527,3.6 0.009,0.019 0.018,0.413 -0.009,0.362 1.153,1.876 2.222,3.597 3.276,5.295 1.045,1.676 1.923,3.397 2.914,5.083 0.088,0.153 0.506,0.52 0.574,0.678 0.051,0.111 -0.049,0.55 0,0.662 0.069,0.157 0.564,0.485 0.722,0.799 l 5.589,11.146 c 0.567,0.404 1.129,1.184 1.196,2.21 1.236,1.431 1.83,3.143 2.994,4.41 l 1.637,2.355 4.349,4.389 1.205,1.976 c 0.165,0.281 1.02,0.917 1.154,1.205 0.739,1.528 1.635,2.896 2.838,4.018 0.086,0.074 0.253,0.626 0.374,0.743 l 3.713,3.71 c 1.198,0.625 2.088,1.517 2.71,2.713 l 3.332,3.33 c 0.242,0.246 0.734,0.269 0.945,0.564 0.24,0.336 0.297,0.794 0.579,0.987 0.334,0.227 1.351,0.613 1.637,0.815 0.269,0.193 0.922,1.001 1.189,1.198 0.287,0.197 1.298,0.597 1.593,0.792 0.181,0.121 0.62,0.659 0.808,0.766 2.162,1.291 4.391,2.499 6.743,3.595 0.17,0.081 0.732,0.185 0.683,0.148 1.976,1.282 3.964,2.202 6.035,3.126 1.686,0.748 3.527,1.47 5.095,2.199 0.281,0.135 0.625,0.606 0.787,0.673 0.488,0.205 0.825,-0.259 1.287,-0.148 1.916,0.439 3.49,1.337 5.389,1.909 0.567,-1.398 0.845,-2.975 1.603,-4.113 0.097,-0.149 0.51,-0.518 0.58,-0.673 0.049,-0.107 -0.07,-0.592 0,-0.665 l 1.433,-1.495 c 0.469,-0.924 0.85,-2.013 1.507,-2.74 0.107,-0.116 0.657,0.028 0.715,-0.014 0.579,-0.42 1.089,-0.917 1.371,-1.605 1.299,-0.092 2.129,-0.791 2.718,-1.562 0.936,-0.112 1.656,-0.472 2.276,-0.795 0.309,-0.16 1.447,0.059 1.668,-0.018 0.856,-0.295 1.597,-0.594 2.068,-1.161 0.962,-0.121 1.747,0.216 2.434,0.239 0.416,0.012 1.368,-0.726 1.705,-0.789 0.313,-0.063 0.841,-0.224 0.979,0.095 0.077,0.174 0.059,0.706 0,0.841 -0.06,0.153 -0.522,0.505 -0.594,0.659 -0.048,0.112 0.026,0.552 -0.026,0.636 -0.157,0.269 -0.346,0.583 -0.48,0.597 -0.816,0.081 -1.433,0.416 -2.294,0.274 0.099,0.111 0.427,0.385 0.431,0.502 0.08,1.182 0.435,2.143 0.799,3.065 -0.285,0.871 -0.696,1.658 -0.801,2.617 l -0.002,3.569 0.411,3.065 -0.42,2.104 h -1.989 v 3.388 c 0,0.516 -0.308,1.098 -1.097,1.553 -0.177,-1.267 -0.059,-3.334 -0.086,-4.665 0,-0.102 -0.323,-0.462 -0.421,-0.467 -0.673,-0.043 -1.266,0.446 -1.438,0.953 -0.125,0.39 -0.58,0.785 -0.731,1.226 l -1.4,4.194 c 0.304,0.859 0.625,1.697 0.817,2.781 0.755,0.57 1.449,1.403 1.542,2.661 l 1.81,1.893 c 0.556,0.78 0.698,1.897 0.905,3.098 0.058,0.337 -0.039,1.031 -0.337,1.34 -0.492,0.501 -0.882,1.089 -1.384,1.519 h -1.881 c -0.371,0 -0.836,0.617 -1.07,1.04 -0.065,0.116 0.062,0.587 0,0.683 -0.177,0.29 -0.922,1.051 -1.25,1.244 -0.466,0.279 -0.9,0.713 -1.369,1.003 -0.231,0.149 -1.303,0.121 -1.473,-0.034 -1.031,-0.95 -2.032,-1.972 -2.842,-3.156 l -1.609,-3.163 -0.59,-1.978 c 0.464,-1.803 0.599,-3.908 0.773,-5.973 0.499,-1.454 0.957,-3 1.196,-4.635 l 0.012,-2.88 c 0.443,-1.388 0.787,-2.8 1.318,-3.942 0.133,-0.279 0.765,-0.871 0.997,-0.867 0.829,0.012 1.639,-0.485 1.881,-1.265 l 2.744,-1.558 c 0.78,0.332 1.67,0.564 2.769,0.404 l 3.009,-2.949 c 0.134,-0.135 0.044,-0.939 -0.045,-1.064 -0.292,-0.448 -0.617,-0.936 -1.163,-1.138 -0.529,0.488 -0.78,1.215 -1.132,1.744 -0.11,0.17 -0.514,0.111 -0.644,-0.125 -0.184,-0.346 -0.239,-0.862 -0.564,-0.996 -0.297,-0.126 -1.371,0.086 -1.517,-0.031 -1.079,-0.857 -2.023,0.16 -3.13,0.286 -1.228,0.139 -1.737,1.268 -2.025,2.269 -0.553,0.506 -1.201,0.712 -1.516,1.247 l -1.637,3.732 c -0.785,0.255 -1.124,0.905 -1.296,1.579 -0.179,0.703 -0.165,1.416 -0.427,2.062 -0.082,0.197 0.392,1.091 0.392,1.37 v 4.962 c -1.207,2.471 -1.948,5.339 -2.84,7.949 0.564,1.105 1.017,2.222 1.228,3.409 0.7,0.919 1.252,1.843 1.786,2.638 0.16,0.241 0.209,0.845 0.142,0.719 0.868,1.556 1.767,2.685 2.9,3.516 0.616,0.446 1.343,0.771 2.06,1.052 h 4.132 c 0.261,0 1.132,-0.406 1.323,-0.601 l 2.563,-2.564 c 0.727,-1.514 1.656,-2.912 2.112,-4.545 0.418,-1.484 0.925,-2.788 1.286,-4.08 0.116,-0.42 0.042,-1.411 0,-1.722 -0.037,-0.288 -0.428,-1.152 -0.351,-1.348 0.272,-0.685 0.43,-1.393 0.939,-1.853 0.127,0.286 0.547,1.069 0.605,1.348 0.061,0.327 -0.104,1.425 0.032,1.718 0.411,0.878 0.79,1.769 1.166,2.814 0.128,0.372 -0.638,0.725 -0.745,1.129 -0.221,0.813 -0.269,1.623 -0.536,2.389 -0.481,1.392 -0.992,2.892 -1.707,4.131 -0.14,0.249 -0.943,0.836 -0.969,1.096 -0.067,0.655 -0.278,1.259 -0.631,1.682 l -2.703,2.719 c -0.955,0.541 -2.573,0.611 -3.444,1.314 -0.172,0.133 -0.03,0.762 0.01,0.815 0.404,0.583 0.9,1.071 1.576,1.319 1.56,0.567 3.222,1.152 5.039,1.379 l 4.228,0.015 c 0.366,0 0.897,0.622 0.983,0.989 0.701,3.111 1.756,5.791 2.48,8.808 l 0.776,1.86 2.972,12.98 3.862,20.868 c 0.411,0.419 0.852,0.956 1.353,1.388 l 7.452,0.005 c 4.259,-0.219 8.467,-0.632 12.851,-0.799 3.709,-0.748 7.468,-1.442 11.372,-1.972 0.12,-0.016 0.443,-0.318 0.482,-0.415 0.056,-0.14 0.015,-0.641 -0.006,-0.692 -0.957,-2.188 -1.352,-4.863 -1.995,-7.25 -1.433,-5.327 -2.817,-10.675 -4.352,-15.907 -0.081,-0.276 -0.09,-1.191 -0.201,-1.451 l -0.802,-1.856 c -0.685,-2.721 -1.261,-5.433 -1.997,-8.076 l -0.771,-1.865 c -0.365,-1.305 -0.641,-2.617 -0.805,-4.114 -0.544,-1.145 -1.134,-2.274 -1.654,-3.574 0.478,-1.653 2.998,-2.559 4.816,-1.77 0.778,0.65 0.987,1.974 0.773,3.021 1.979,7.099 3.553,14.368 5.449,21.269 l 4.911,19.09 c 0.086,0.323 -0.063,1.435 0.088,1.633 0.338,0.439 0.963,0.845 1.383,0.715 4.498,-1.375 9.106,-2.513 13.493,-4.045 0.292,-0.321 0.787,-0.683 1.341,-0.939 0,-0.153 0.054,-0.573 0,-0.682 -0.101,-0.209 -0.647,-0.734 -0.666,-0.778 -1.966,-5.536 -3.675,-11.098 -5.308,-16.838 l -1.574,-3.841 -1.698,-7.115 c -0.593,-1.063 -0.926,-2.628 -1.368,-4.254 -0.576,-2.127 -1.156,-4.331 -1.707,-6.648 l -1.191,-2.65 v -1.976 c 0,-0.239 0.362,-0.578 0.664,-0.674 0.193,-0.058 0.876,-0.044 1.024,0.045 0.423,0.255 0.973,0.576 1.08,1.058 0.413,1.919 0.697,4.048 1.205,5.917 0.878,1.591 1.286,3.651 1.537,5.764 0.031,0.27 0.813,0.79 0.85,0.996 l 0.595,3.314 1.193,3.571 0.595,3.303 c 0.82,0.807 1.324,1.922 1.349,3.483 0.783,1.774 1.416,3.669 1.856,5.912 0.548,1.026 1.06,2.245 1.144,3.785 0.746,1.588 1.263,3.293 1.802,4.983 0.103,0.321 0.091,1.408 0.209,1.717 0.079,0.206 0.602,0.756 0.794,0.865 0.126,0.061 0.686,0.066 0.82,-0.023 1.066,-0.757 2.657,-1.035 3.781,-1.412 0.352,-0.125 0.689,-0.733 0.868,-0.752 0.859,-0.074 1.572,-0.481 2.118,-0.957 0.411,-0.353 1.003,-0.546 1.658,-0.608 l 2.677,-2.627 c 0.093,-0.095 0.042,-0.61 -0.037,-0.708 -0.358,-0.443 -0.717,-0.915 -0.942,-1.467 -2.067,-5.072 -3.828,-10.487 -5.643,-15.865 -2.764,-8.186 -5.395,-16.348 -7.299,-25.325 l 0.014,-1.844 c 0,-0.237 0.404,-0.73 0.79,-0.676 2.073,0.265 4.331,0.56 6.736,0.385 1.089,-0.685 2.141,-1.291 2.805,-2.305 0.102,-0.156 0.135,-1.32 -0.041,-1.428 -0.95,-0.556 -1.707,-1.489 -2.736,-2.014 -1.049,-0.541 -2.645,-0.367 -3.602,-0.975 -0.381,-0.244 -0.485,-0.63 -0.324,-1.001 0.099,-0.239 0.865,-1.001 1.139,-1.205 0.284,-0.207 1.31,-0.588 1.591,-0.799 0.272,-0.195 1.013,-0.968 1.192,-1.254 0.057,-0.095 -0.052,-0.597 0.02,-0.655 0.578,-0.478 0.929,-1.223 1.08,-2.009 0.334,-1.73 0.445,-3.531 0.504,-5.18 -0.49,-2.039 -1.013,-3.897 -1.774,-5.715 l -1.844,-1.969 c -0.065,-0.655 -0.239,-1.254 -0.58,-1.683 l -1.788,-1.787 c -1.159,-0.64 -2.012,-1.796 -3.254,-2.177 -0.444,-0.14 -0.678,-0.932 -0.609,-1.375 0.093,-0.578 0.339,-1.152 0.757,-1.565 l 3.254,-3.502 c 0.863,-1.161 1.992,-2.118 2.348,-3.065 l 9.434,-9.391 c 0.121,-0.121 0.679,-0.279 0.794,-0.395 l 3.401,-3.402 c 0.246,-0.241 0.26,-0.743 0.526,-0.945 0.184,-0.144 0.728,-0.304 0.846,-0.425 l 2.577,-2.587 1.206,-1.981 c 0.164,-0.278 0.998,-0.928 1.151,-1.214 0.818,-1.542 2.095,-2.747 2.768,-4.37 0.669,-1.614 1.092,-3.367 1.835,-4.923 0.049,-0.093 0.025,-0.604 -0.025,-0.695 -0.208,-0.366 -0.535,-0.891 -0.958,-0.708 -0.578,0.246 -1.242,0.286 -1.897,0.367 -1.481,1.502 -3.26,2.615 -5.139,3.59 -0.239,0.126 -1.061,-0.058 -1.216,0.058 -0.295,0.221 -0.37,0.715 -0.664,0.92 -0.265,0.188 -1.096,0.615 -1.361,0.615 h -2.12 l -1.853,0.792 h -5.035 c -0.343,0 -1.458,-0.228 -1.663,-0.416 -0.851,-0.785 -1.927,-1.314 -3.121,-1.551 -1.446,-1.026 -2.691,-2.015 -3.933,-3.116 -0.24,-0.214 0.397,-1.133 0.114,-1.702 -0.32,-0.641 -0.664,-1.345 -0.945,-2.095 0.013,-0.757 0.188,-1.437 0.409,-2.043 0.076,-0.209 -0.477,-1.115 -0.598,-1.394 l -0.543,1.085 c -0.086,-1.04 -0.037,-2.227 -0.049,-3.128 0.321,0.097 0.423,0.569 0.583,0.859 0.184,-0.165 0.671,-0.699 0.871,-0.801 0.102,-0.053 0.55,-0.032 0.634,0.025 0.406,0.288 0.857,0.588 1.087,1.01 0.064,0.121 0.067,0.637 -0.021,0.704 -0.543,0.43 -1.118,1.201 -0.955,2.29 l 1.175,1.901 c 0.084,0.133 -0.027,0.685 0.031,0.767 0.173,0.232 0.39,0.511 0.766,0.462 0.878,-0.121 1.702,-0.836 1.73,-1.742 0.033,-1.177 -0.371,-2.243 -0.365,-3.529 0,-0.13 0.337,-0.437 0.413,-0.448 0.474,-0.096 0.941,0.088 1.389,0.155 0.265,0.037 1.152,-0.439 1.401,-0.604 0.239,-0.157 0.817,-0.852 1.058,-0.991 0.103,-0.058 0.546,0.025 0.639,-0.028 0.269,-0.16 0.557,-0.344 0.662,-0.646 0.187,-0.541 0.32,-1.137 0.17,-1.706 -0.094,-0.356 -0.205,-0.871 -0.553,-0.978 -0.69,-0.211 -1.173,-0.762 -1.577,-1.335 -0.063,-0.091 0,-0.685 0,-0.873 h 2.9 c 0.244,0 0.578,-0.36 0.674,-0.665 0.056,-0.167 0,-0.74 0,-1.102 l 3.153,3.132 c 0.307,0.307 0.708,-0.195 0.744,-0.455 0.131,-1.038 0.343,-1.742 0.015,-2.557 0.142,-0.169 0.372,-0.492 0.43,-0.501 1.222,-0.189 1.977,0.496 2.213,1.305 l 4.983,-0.033 c 0.026,0.896 -0.327,1.547 -0.694,2.095 -0.694,0.044 -1.254,0.309 -1.702,0.666 -0.049,0.042 -0.039,0.525 0.011,0.607 0.484,0.766 1.347,1.119 1.974,1.632 0.165,0.125 0.074,0.994 0,1.177 -0.083,0.216 -0.717,0.713 -0.792,0.929 -0.083,0.232 0,1.056 0,1.321 0.212,0 0.859,0.054 1.06,0 0.276,-0.067 1.131,-0.404 1.318,-0.592 l 1.983,-2.008 0.416,-1.93 c 0.629,-0.495 1.538,-0.481 2.176,-0.934 0.12,-0.09 0.042,-0.743 0,-0.891 -0.074,-0.279 -0.525,-1.055 -0.594,-1.331 -0.051,-0.197 0,-0.843 0,-1.054 0.264,0 1.098,-0.093 1.314,0 0.276,0.116 0.571,0.357 0.671,0.664 0.051,0.137 -0.014,0.636 0.005,0.694 0.3,0.857 0.613,1.591 1.191,2.072 0.069,0.062 -0.056,0.573 0,0.67 0.102,0.203 0.599,0.765 0.792,0.867 0.125,0.063 0.659,0.028 0.738,-0.033 0.24,-0.179 0.606,-0.401 0.457,-0.761 -0.204,-0.488 -0.209,-1.045 -0.392,-1.514 -0.086,-0.23 -0.84,-0.781 -0.808,-1.011 0.158,-1.107 0.492,-2.087 0.42,-3.402 0.92,-2.603 1.879,-5.073 2.536,-7.793 0.574,-2.394 0.838,-5.048 1.003,-7.809 0.53,-1.036 1.071,-2.134 1.306,-3.46 0.074,-0.439 0.652,-0.901 0.895,-1.444 1.215,-2.729 2.316,-5.576 3.366,-8.483 0.34,-3.525 1.1,-6.639 2.236,-9.379 0.85,-1.259 1.509,-2.71 2.141,-4.038 l 0.434,-3.595 c 0.892,-1.335 1.765,-3.017 2.343,-4.844 l 0.416,-2.775 v -3.314 l 0.404,-2.84 c 0.794,-1.498 1.5,-3.125 2.067,-4.726 0.106,-0.294 0.659,-0.631 0.684,-0.789 0.233,-1.289 0.706,-2.406 1.213,-3.397 v -8.511 l 0.403,-3.713 c -0.21,-3.585 -1.478,-6.346 -2.593,-9.017 -0.191,-1.983 -0.936,-3.462 -1.435,-4.997 -0.595,-0.861 -1.254,-1.7 -1.705,-2.691 -0.292,-0.637 -0.501,-1.34 -0.622,-2.097 -0.042,-0.251 -0.88,-0.825 -1.006,-1.112 -1.023,-2.358 -2.358,-4.478 -3.671,-6.647 -0.483,-0.803 -1.244,-1.421 -1.923,-2.052 -0.197,-0.193 -1.409,0 -1.744,0 -0.135,-1.041 -0.427,-2.053 -0.371,-3.179 0.095,-1.928 0.435,-3.697 0.369,-5.808 -0.007,-0.293 -0.483,-1.082 -0.618,-1.377 -0.381,0.857 -0.715,1.702 -1.377,2.284 -0.13,0.117 0.082,1.085 -0.025,1.389 -0.348,0.983 -0.673,2.065 -0.752,3.342 l -0.706,1.523 c -1.296,1.403 -2.023,2.943 -3.288,4.008 -0.29,0.242 -0.755,0.283 -0.994,0.593 -0.114,0.145 -0.321,0.72 -0.462,0.801 -0.137,0.081 -0.739,0 -0.932,0"
           style="fill:#231f20;fill-opacity:1;fill-rule:nonzero;stroke:none"
           id="path36" />
      </g>
    </g>
  </g>
</svg>
